<?xml version="1.0" ?><svg height="500" id="svg2" version="1.1" width="500" xmlns="http://www.w3.org/2000/svg" xmlns:cc="http://creativecommons.org/ns#" xmlns:dc="http://purl.org/dc/elements/1.1/" xmlns:inkscape="http://www.inkscape.org/namespaces/inkscape" xmlns:rdf="http://www.w3.org/1999/02/22-rdf-syntax-ns#" xmlns:sodipodi="http://sodipodi.sourceforge.net/DTD/sodipodi-0.dtd" xmlns:svg="http://www.w3.org/2000/svg"><defs id="defs4"/><g id="layer1" transform="translate(0,-552.36218)"><path d="M 50 0 C 22.3 0 -9.483155e-017 22.3 0 50 L 0 450 C 0 477.7 22.3 500 50 500 L 450 500 C 477.7 500 500 477.7 500 450 L 500 50 C 500 22.3 477.7 -9.483155e-017 450 0 L 50 0 z M 250.84375 104.375 L 251.03125 104.375 C 251.03125 104.375 333.33781 104.37133 388.21875 108.625 C 395.88027 109.5689 412.61275 109.66556 427.53125 126.3125 C 439.28707 139.01222 443.09375 167.84375 443.09375 167.84375 C 443.09375 167.84375 447.03125 201.70474 447.03125 235.5625 L 447.03125 267.28125 C 447.03125 301.13901 443.09375 334.96875 443.09375 334.96875 C 443.09375 334.96875 439.27481 363.82479 427.53125 376.5 C 412.61275 393.14693 395.88027 393.23808 388.21875 394.21875 C 333.33781 398.42339 250.9375 398.5625 250.9375 398.5625 C 250.9375 398.5625 148.99429 397.58671 117.625 394.375 C 108.897 392.63431 89.305754 393.11568 74.375 376.46875 C 62.619176 363.79355 58.78125 334.96875 58.78125 334.96875 C 58.78125 334.96875 54.875 301.15126 54.875 267.28125 L 54.875 235.53125 C 54.875 201.68575 58.78125 167.84375 58.78125 167.84375 C 58.78125 167.84375 62.631434 139.01222 74.375 126.3125 C 89.305754 109.66556 105.99474 109.5689 113.65625 108.625 C 168.52494 104.37133 250.84375 104.375 250.84375 104.375 z M 201.96875 177.90625 L 201.96875 325.03125 L 324.5625 251.46875 L 201.96875 177.90625 z " id="rect2995" style="fill:#000000;fill-opacity:1;fill-rule:nonzero" transform="translate(0,552.36218)"/><g id="g2994" transform="matrix(12.258419,0,0,12.258419,54.872837,607.69312)"/><g id="g2996" transform="matrix(12.258419,0,0,12.258419,54.872837,607.69312)"/><g id="g2998" transform="matrix(12.258419,0,0,12.258419,54.872837,607.69312)"/><g id="g3000" transform="matrix(12.258419,0,0,12.258419,54.872837,607.69312)"/><g id="g3002" transform="matrix(12.258419,0,0,12.258419,54.872837,607.69312)"/><g id="g3004" transform="matrix(12.258419,0,0,12.258419,54.872837,607.69312)"/></g></svg>