<?xml version="1.0" encoding="UTF-8" standalone="no"?>
<svg
   xmlns:dc="http://purl.org/dc/elements/1.1/"
   xmlns:cc="http://creativecommons.org/ns#"
   xmlns:rdf="http://www.w3.org/1999/02/22-rdf-syntax-ns#"
   xmlns:svg="http://www.w3.org/2000/svg"
   xmlns="http://www.w3.org/2000/svg"
   id="svg30"
   version="1.1"
   height="155.5"
   width="263.5">
  <metadata
     id="metadata36">
    <rdf:RDF>
      <cc:Work
         rdf:about="">
        <dc:format>image/svg+xml</dc:format>
        <dc:type
           rdf:resource="http://purl.org/dc/dcmitype/StillImage" />
      </cc:Work>
    </rdf:RDF>
  </metadata>
  <defs
     id="defs34" />
  <style
     id="style2"><![CDATA[  #title path, #title polygon{ fill: #ffffff !important; } #tagline path, #tagline polygon{ fill: #ffffff !important; }  #icon *{ fill: #ffffff !important; } ]]></style>
  <g
     id="g7">
    <title
       id="title4">background</title>
    <rect
       x="-1"
       y="-1"
       width="582"
       height="402"
       id="canvas_background"
       fill="none" />
  </g>
  <g
     id="g28">
    <title
       id="title9">Layer 1</title>
    <g
       id="logo-group">
      <g
         id="icon">
        <path
           id="path10"
           d="m117.495068,84.5174586l15.885228,0a2.375085,2.375085 0 0 0 2.3700675,-2.37l0,-2.3175l-1.875034,0l0,2.3175a0.49694625,0.49694625 0 0 1 -0.49503375,0.495l-15.885228,0a0.494565,0.494565 0 0 1 -0.49503375,-0.495l0,-15.885a0.49455375,0.49455375 0 0 1 0.49503375,-0.495l2.3175,0l0,-1.875l-2.3175,0a2.372655,2.372655 0 0 0 -2.370068,2.3700037l0,15.885a2.37266625,2.37266625 0 0 0 2.370068,2.3699963l2.5e-7,0z" />
        <path
           id="path12"
           d="m148.875,69.0214273l0,-15.8837137a2.3729025,2.3729025 0 0 0 -2.37009,-2.370375l-15.88416,0a2.3732025,2.3732025 0 0 0 -2.3704575,2.370375l0,15.8837137a2.3728875,2.3728875 0 0 0 2.3704575,2.37l15.88416,0a2.3725875,2.3725875 0 0 0 2.37009,-2.37zm-18.7497338,0l0,-15.8837137a0.49605375,0.49605375 0 0 1 0.495484,-0.4954613l15.88416,0a0.49595625,0.49595625 0 0 1 0.49509,0.4954613l0,15.8837137a0.49588875,0.49588875 0 0 1 -0.49510125,0.49509375l-15.884149,0a0.49598625,0.49598625 0 0 1 -0.495484,-0.4950937l2.5e-7,-5e-8z" />
        <path
           id="path14"
           d="m142.31298,75.5849586l0,-2.3175l-1.875034,0l0,2.3175a0.49694625,0.49694625 0 0 1 -0.49503375,0.495l-15.885228,0a0.494565,0.494565 0 0 1 -0.49503375,-0.495l0,-15.885a0.496965,0.496965 0 0 1 0.49503375,-0.495l2.3175,0l0,-1.875l-2.3175,0a2.372655,2.372655 0 0 0 -2.3700675,2.37l0,15.885a2.37025875,2.37025875 0 0 0 2.3700675,2.37l15.885228,0a2.37266625,2.37266625 0 0 0 2.370068,-2.37l-2.5e-7,0z" />
      </g>
      <g
         id="title"
         fill="#fff">
        <path
           id="path228903"
           d="m76.272586,96.2964764l-1.90675725,0l-0.330853421,-1.74133054q-0.330850945,-0.208959665 -0.96643752,-0.365679289q-0.635586575,-0.156719872 -1.34953148,-0.156719872q-1.04479832,0 -1.61943678,0.444039349q-0.565933354,0.435332758 -0.565933354,1.13186497q0,0.644292175 0.592053621,1.0622115q0.600758726,0.409212738 2.06347638,0.870665269q2.09830175,0.583345792 3.17792792,1.54107746q1.08833128,0.95773192 1.08833128,2.51622257q0,1.62814419 -1.28858336,2.56846266q-1.28858584,0.940318503 -3.39559517,0.940318503q-1.50625061,0 -2.72518322,-0.478865898q-1.21022503,-0.47886591 -2.01994342,-1.32341121l0,-2.646822l1.96770289,0l0.269907781,1.80227697q0.38309148,0.313439497 1.03609074,0.522399186q0.661706843,0.200253 1.47142523,0.200253q1.04479832,0 1.58461141,-0.426625994q0.548518191,-0.426626093 0.548518191,-1.14057149q0,-0.731358826 -0.5224004,-1.17539818q-0.513690342,-0.444039102 -1.81098376,-0.835838659q-2.25502088,-0.652998766 -3.41300786,-1.54978406q-1.1579845,-0.896785289 -1.1579845,-2.45527618q0,-1.54107746 1.30599852,-2.51622257q1.30599852,-0.983851692 3.28240899,-1.00997171q1.46271765,0 2.6642351,0.444039349t2.01994342,1.18410477l2.2e-8,2.594582096z" />
        <path
           id="path228905"
           d="m83.6916212,103.157319q0.679119529,0 1.08833128,-0.391799384q0.409214224,-0.400506148 0.409214224,-1.06221175l2.29855631,0l0.0261177911,0.05224004q0.0348278491,1.42789104 -1.07091611,2.39432948q-1.10574644,0.957731809 -2.75130349,0.957731809q-2.10700933,0 -3.24758114,-1.33211786q-1.14057181,-1.3321178 -1.14057181,-3.42171445l0,-0.261199705q0,-2.08088981 1.16669208,-3.42171445q1.17539718,-1.34082439 3.34335463,-1.34082439q1.14057181,0 2.04606369,0.339559269q0.90549188,0.339559517 1.50625061,0.95773192l0.0348253725,2.51622257l-2.06347638,0l-0.417919329,-1.47142424q-0.191546978,-0.165426463 -0.470159865,-0.269906295q-0.278612886,-0.113186423 -0.635584099,-0.113186423q-1.07962617,0 -1.52366577,0.783598618q-0.44403712,0.783598866 -0.44403712,2.01994342l0,0.261199705q0,1.26246458 0.409211748,2.03735661q0.409211748,0.766185511 1.43659738,0.766185511l-2.6e-9,-5e-9z" />
        <path
           id="path228907"
           d="m90.5969636,103.401105l1.21893262,-0.261199581l0,-5.8421635l-1.34953148,-0.261199457l0,-1.53237087l3.71774101,0l0.113186176,1.375651q0.330853422,-0.731358826 0.853251345,-1.14057156q0.5224004,-0.409212491 1.21022503,-0.409212491q0.200252083,0 0.417919329,0.0348266108q0.226372351,0.0261197723 0.374386375,0.0696532215l-0.269905305,2.31596949l-1.04479832,-0.02612002q-0.557225772,0 -0.922907043,0.217666503q-0.365678794,0.217666255 -0.557225772,0.618172155l0,4.57969939l1.21893262,0.261199581l0,1.523664l-4.98020658,0l-5e-9,-1.5236644723z" />
        <path
           id="path228909"
           d="m103.997471,105.107609q-2.03735611,0 -3.25628873,-1.30599789q-1.21893014,-1.30599793 -1.21893014,-3.31723456l0,-0.348266108q0,-2.09830348 1.14927692,-3.4565413q1.1579845,-1.35823782 3.0995696,-1.34953098q1.90675477,0 2.96026068,1.14927816q1.0535059,1.14927816 1.0535059,3.10827495l0,1.38435759l-5.62449826,0l-0.0174102097,0.05224004q0.0696532215,0.9316119 0.618171412,1.53237087q0.557225772,0.600759048 1.50625061,0.600759048q0.84454624,0 1.40177201,-0.165426414q0.557225772,-0.174133054 1.21893014,-0.539812467l0.687827111,1.56719748q-0.58334604,0.461452605 -1.51495819,0.77489209q-0.922904566,0.313439497 -2.06347638,0.313439497l-0.0000024733,-6e-9zm-0.226373,-7.8185741q-0.705239797,0 -1.11445154,0.539812343q-0.409214224,0.539812591 -0.504987714,1.41918445l0.0261202677,0.0435332015l3.11698228,0l0,-0.226372846q0,-0.809718638 -0.383093957,-1.2885846q-0.374383899,-0.487572551 -1.14056934,-0.487572551l3.3e-9,2.5e-9z" />
        <path
           id="path228911"
           d="m115.238726,105.107609q-2.03735611,0 -3.25628625,-1.30599789q-1.21893262,-1.30599793 -1.21893262,-3.31723456l0,-0.348266108q0,-2.09830348 1.14927939,-3.4565413q1.1579845,-1.35823782 3.09956712,-1.34953098q1.90675725,0 2.96026315,1.14927816q1.05350343,1.14927816 1.05350343,3.10827495l0,1.38435759l-5.62449826,0l-0.0174102097,0.05224004q0.0696532215,0.9316119 0.618173889,1.53237087q0.557225772,0.600759048 1.50625061,0.600759048q0.844543763,0 1.40176954,-0.165426414q0.557225772,-0.174133054 1.21893262,-0.539812467l0.687824634,1.56719748q-0.58334604,0.461452605 -1.51495819,0.77489209q-0.922904566,0.313439497 -2.06347638,0.313439497l-0.0000024733,-6e-9zm-0.226373,-7.8185741q-0.705239797,0 -1.11445154,0.539812343q-0.409211748,0.539812591 -0.504985237,1.41918445l0.0261202677,0.0435332015l3.11697981,0l0,-0.226372846q0,-0.809718638 -0.38309148,-1.2885846q-0.374386375,-0.487572551 -1.14057181,-0.487572551l-1.07e-8,2.5e-9z" />
        <path
           id="path228913"
           d="m121.83063,103.401105l1.21893262,-0.261199581l0,-5.8421635l-1.34953148,-0.261199457l0,-1.53237087l3.71774101,0l0.113186176,1.34953098q0.470157388,-0.722651988 1.1579845,-1.12315814q0.687824634,-0.4005059 1.54107598,-0.4005059q1.42789228,0 2.22890309,0.896785042q0.801013286,0.896785289 0.801013286,2.81224888l0,4.10083343l1.21893014,0.261199581l0,1.523664l-4.85831035,0l0,-1.52366421l1.08833128,-0.261199581l0,-4.0921264q0,-0.949025082 -0.383093957,-1.34082439q-0.38309148,-0.400506148 -1.1579845,-0.400506148q-0.504985237,0 -0.90549188,0.208959665q-0.400506643,0.200253074 -0.670411948,0.574639202l0,5.04985851l1.02738564,0.261199581l0,1.523664l-4.7886596,0l-7e-9,-1.523664694z" />
        <path
           id="path228915"
           d="m142.710149,98.743046l-1.706502,0l-0.269905305,-1.17539818q-0.2612002,-0.208959665 -0.661706843,-0.348266108q-0.391799062,-0.139306443 -0.870664031,-0.139306443q-0.670414424,0 -1.06221349,0.304732906q-0.391799062,0.296026068 -0.391799062,0.748772008q0,0.42662592 0.374386375,0.713945645q0.374386375,0.278612886 1.4975455,0.496279142q1.75003564,0.348266108 2.59458188,1.02738489q0.844543763,0.670412195 0.844543763,1.85451696q0,1.27117142 -1.09703638,2.0808901q-1.08833128,0.80101206 -2.87319725,0.80101206q-1.08833128,0 -2.00252826,-0.313439497q-0.905492,-0.322146 -1.610732,-0.914198l-0.0261202677,-2.11571667l1.77615839,0l0.348266108,1.22763809q0.226372351,0.191546359 0.618171412,0.287319551q0.391799062,0.0870665269 0.818425972,0.0870665269q0.774890542,0 1.17539718,-0.278612886q0.409214224,-0.278612911 0.409214224,-0.75747892q0,-0.417919329 -0.409214224,-0.722651988q-0.409211748,-0.304732906 -1.50625061,-0.539812591q-1.66296974,-0.339559269 -2.51622356,-1.00126487q-0.844543763,-0.670412443 -0.844543763,-1.8196906q0,-1.18410477 0.975145102,-2.03735661q0.975145102,-0.861958678 2.77742128,-0.861958678q1.09703886,0 2.07218396,0.296026315q0.983852683,0.296026068 1.54107846,0.757478598l0.0261174397,2.3420892491z" />
        <path
           id="path228917"
           d="m154.717592,93.7802538l-0.96643752,0.174133054l2.24631578,7.60090774l0.156719129,0.696532216l0.0522405353,0l0.148011548,-0.679118786l2.25502336,-7.61832117l-0.95773,-0.1741332l0,-1.53237087l4.63193799,0l0,1.5323709l-1.06221101,0.139306443l-3.735154,11.0052088l-2.611997,0l-3.743861,-11.0052087l-1.044798,-0.1393065l0,-1.53237087l4.63194,0l1.877e-7,1.532370943z" />
        <path
           id="path228919"
           d="m164.774742,103.401105l1.2276402,-0.261199581l0,-5.8421635l-1.35823906,-0.261199457l0,-1.53237087l3.90058041,0l0,7.6357343l1.21893262,0.261199581l0,1.523664l-4.98891416,0l-1e-8,-1.523664473zm3.76998154,-10.151957l-2.54234135,0l0,-1.906757l2.54234135,0l0,1.906757z" />
        <path
           id="path228921"
           d="m176.84313,105.107609q-2.03735611,0 -3.25628625,-1.30599789q-1.21893262,-1.30599793 -1.21893262,-3.31723456l0,-0.348266108q0,-2.09830348 1.14927939,-3.4565413q1.1579845,-1.35823782 3.09956712,-1.34953098q1.90675725,0 2.96026315,1.14927816q1.05350343,1.14927816 1.05350343,3.10827495l0,1.38435759l-5.62449826,0l-0.0174102096,0.05224004q0.0696532215,0.9316119 0.618173889,1.53237087q0.557225772,0.600759048 1.50625061,0.600759048q0.844543763,0 1.40176954,-0.165426414q0.557225772,-0.174133054 1.21893262,-0.539812467l0.687824634,1.56719748q-0.58334604,0.461452605 -1.51495819,0.77489209q-0.922904566,0.313439497 -2.06347638,0.313439497l-0.0000024734,-6e-9zm-0.226372,-7.8185741q-0.705239797,0 -1.11445154,0.539812343q-0.409211748,0.539812591 -0.504985237,1.41918445l0.0261202676,0.0435332015l3.11697981,0l0,-0.226372846q0,-0.809718638 -0.38309148,-1.2885846q-0.374386375,-0.487572551 -1.14057181,-0.487572551l-1.06e-8,2.5e-9z" />
        <path
           id="path228923"
           d="m197,97.0365421l-0.949024834,0.121893014l-1.967705,7.7663339l-2.124422,0l-1.75003812,-5.60708433l-0.0522380588,0l-1.750039,5.6070843l-2.11571691,0l-1.97641047,-7.7663342l-0.949024834,-0.121893014l0,-1.53237087l4.2662592,0l0,1.53237087l-1.00126537,0.191546235l0.888079194,4.30979314l0.0522405353,0l1.75874322,-6.03371025l1.70650517,0l1.77615591,6.05112344l0.0522405353,0l0.879371612,-4.31849974l-1.00997047,-0.200252826l0,-1.53237087l4.2662592,0l4.902e-7,1.532371201z" />
      </g>
    </g>
  </g>
</svg>
