<?xml version="1.0" encoding="UTF-8" standalone="no"?>
<svg
   xmlns:dc="http://purl.org/dc/elements/1.1/"
   xmlns:cc="http://creativecommons.org/ns#"
   xmlns:rdf="http://www.w3.org/1999/02/22-rdf-syntax-ns#"
   xmlns:svg="http://www.w3.org/2000/svg"
   xmlns="http://www.w3.org/2000/svg"
   id="svg134"
   version="1.1"
   height="155.5"
   width="263.5">
  <metadata
     id="metadata140">
    <rdf:RDF>
      <cc:Work
         rdf:about="">
        <dc:format>image/svg+xml</dc:format>
        <dc:type
           rdf:resource="http://purl.org/dc/dcmitype/StillImage" />
      </cc:Work>
    </rdf:RDF>
  </metadata>
  <defs
     id="defs138" />
  <style
     id="style2"><![CDATA[  #logo-group > rect { fill: none; }    #title path, #title polygon{ fill: #ffffff !important; } #tagline path, #tagline polygon{ fill: #ffffff !important; }  #icon *{ fill: #ffffff !important; } ]]></style>
  <g
     id="g7">
    <title
       id="title4">background</title>
    <rect
       x="-1"
       y="-1"
       width="582"
       height="402"
       id="canvas_background"
       fill="none" />
  </g>
  <g
     id="g132">
    <title
       id="title9">Layer 1</title>
    <rect
       id="rect3"
       width="263.5"
       fill="#2e0150"
       height="155.5" />
    <g
       id="custom-group"
       opacity="0.4">
      <path
         id="path5"
         fill="#FEC3C7"
         d="m0,56.9l0,-4.8c0.5,-1 1.4,-1.6 2.1,-2.4l3.3,-3.3c0.9,-0.9 2,-1.3 3.2,-1.4l7.5,-0.6c0.9,-0.1 1.7,-0.5 2.4,-1.1c3.6,-3.3 7.3,-6.4 10.7,-9.8c2.5,-2.5 5.3,-4 8.5,-4.9c1.9,-0.6 3.7,-1.4 5.6,-2c0.8,-0.3 1.2,-0.8 1.4,-1.7c0.8,-3.6 1.5,-7.1 2.3,-10.7c0.4,-1.7 0.7,-1.8 2.1,-1.5c2.6,0.5 5.2,1.6 7.8,1.4c3.1,-0.2 6.1,0.8 9.1,1.1c0.8,0.1 1,-0.5 1.1,-1.1c0.5,-2.7 1.1,-5.4 1.6,-8.1c0.2,-1.3 0.5,-2.5 0.7,-3.8c0.3,-0.9 0.7,-1.2 1.6,-1.2c3.3,-0.1 6.7,0.2 10,0.3c1,0.1 2.1,0.1 3.1,0c0.4,0 0.7,-0.2 1,-0.5c0.2,-0.3 0.4,-0.6 0.8,-0.7l10.4,0c0.5,0.2 0.3,0.6 0.2,1c-0.6,2.9 -1.1,5.8 -1.7,8.7c-0.2,0.8 -0.1,1.6 -0.4,2.3c-0.3,1 -0.9,1.2 -1.5,0.4c-1.4,-1.7 -2.8,-3.4 -4.1,-5.1c-0.8,-1.1 -1.8,-2.2 -2.6,-3.3c-0.2,-0.2 -0.4,-0.6 -0.6,-0.5c-0.3,0.1 -0.2,0.5 -0.2,0.8l0,6.7c0,1.8 -0.2,2.2 -1.8,2.5c-4.5,0.9 -9.1,1.5 -13.5,2.6c-3.2,0.8 -6.3,0.2 -9.4,-0.3c-2.2,-0.4 -2.2,-0.9 -2.7,2.2c-0.4,2.6 -0.9,5.2 -1.3,7.8c-0.3,1.6 -0.8,2 -2.2,1.9c-2.8,-0.3 -5.6,-0.5 -8.4,-0.8c-0.3,0 -0.6,0 -0.9,0.1c-2.4,1.6 -5.2,2.1 -7.8,3.2c-0.9,0.4 -1.9,0.8 -2.8,1.1c-0.7,0.2 -0.9,0.7 -0.9,1.4c0.2,1.8 0.3,3.6 0.4,5.4c0.1,1.4 0.2,2.8 0.3,4.1c0,1.3 -0.3,1.7 -1.4,1.9c-1.2,0.3 -2.5,0.3 -3.7,0.3c-2.8,0.1 -5.6,0.4 -8.3,0.5c-0.7,0 -1.4,0.1 -2,0.4c-0.3,0.4 0,0.7 0.1,1.1c0.6,1.6 1.2,3.3 1.8,4.9c0.7,1.6 0.5,2.2 -1,2.8c-2.6,1.1 -5.3,1.9 -7.7,3.3c-2.5,1.4 -4.8,1 -7.3,0.6c-1.2,-0.2 -2.4,-0.4 -3.6,-0.6c-0.7,-0.1 -1,-0.2 -1.3,-0.6z" />
      <path
         id="path7"
         fill="#B20085"
         d="m263.5,89.5l0,22.3c-0.5,0.4 -0.9,-0.1 -1.2,-0.4c-2.3,-2 -4.7,-4.1 -7,-6.1c-0.3,-0.3 -0.6,-0.7 -1.1,-0.8c0.1,1.6 0.2,3.1 0.3,4.6c0.1,0.8 0,1.5 -0.6,2c-0.8,0.7 -1.3,1.7 -1.9,2.6c-2.1,3.5 -4.3,7 -6.4,10.6c-0.5,0.9 -1.1,1.3 -2,1.3c-4.4,0.4 -8.8,1.1 -13.2,1.7c-0.2,0 -0.4,0 -0.6,0.2c-1.2,0.9 -2.6,0.6 -3.9,0.4c-2.2,-0.4 -4.5,-0.8 -6.7,-1.3c-1.3,-0.3 -2.1,0.2 -2.8,1.4c-3,5.3 -6.4,10.3 -9.5,15.5c-0.3,0.5 -0.5,0.9 -1,1.2c-0.6,0.2 -1.1,0 -1.6,-0.2c-2,-0.9 -4.1,-1.8 -6.1,-2.7c-0.3,-0.1 -0.6,-0.3 -0.8,-0.4c-1.3,-0.5 -1.4,-0.4 -1.7,1.2c-0.6,4 -1.2,8.1 -1.8,12.1c0,0.3 -0.1,0.7 -0.3,0.9l-2.4,0c-1.8,-1.9 -3.4,-4 -5.1,-6c-1.1,-1.3 -2.2,-2.6 -3.5,-3.9c0,0.8 -0.1,1.6 0,2.4c0.2,2.2 0.3,4.4 0.4,6.5c0,0.3 0.1,0.7 -0.1,1l-12,0c-0.2,-0.5 0.1,-0.8 0.4,-1c3.3,-3.5 6.4,-7.2 9.7,-10.7c0.4,-0.4 0.7,-0.7 1.2,-0.9c2.1,-0.7 4.2,-1.1 6.4,-1.6c2.4,-0.5 4.8,-1 7.1,-1.7c0.6,-0.2 1.1,0 1.7,0.2c2.3,1 4.6,2.1 6.9,3.1c1.4,0.6 1.4,0.6 2.3,-0.8c3,-5 6.1,-10 9.1,-15c1,-1.6 2.2,-2.3 3.9,-2c2.6,0.5 5.2,1 7.8,1.5c1.1,0.2 1.2,0.1 1.4,-1.2c0.8,-4.3 1.5,-8.6 2.3,-12.8c0.1,-0.6 0.2,-1.2 0.5,-1.6c1,-0.9 2.3,-0.9 3.5,-1c1.6,0 3.3,-0.3 4.9,-0.3c0.8,0 1.2,-0.4 1.4,-1.2c0.4,-1.8 0.8,-3.6 1.2,-5.3c0.1,-0.6 0.3,-1.2 0.6,-1.7c0.4,-0.8 0.9,-1.2 1.7,-1.1c2.6,0.4 5.2,0.7 7.7,1.2c0.6,0 0.9,-0.3 1.3,-0.7c2.2,-2.7 4.3,-5.5 6.5,-8.2c0.7,-0.9 1.4,-1.9 2.2,-2.7c0.2,-0.3 0.5,-0.7 0.9,-0.6z" />
      <path
         id="path9"
         fill="#FEB5C3"
         d="m0,56.9c2.1,0.3 4.2,0.7 6.2,1c0.8,0.1 1.5,0.2 2.3,0.4c0.4,0.1 0.7,0.1 1.1,-0.1c3.4,-1.8 6.9,-3 10.4,-4.5c0.8,-0.3 0.9,-0.8 0.6,-1.6c-0.7,-1.9 -1.5,-3.9 -2.2,-5.8c-0.1,-0.4 -0.4,-0.7 0,-1.1c0.6,-0.1 1,0.3 1.5,0.6c2.4,1.6 4.7,3.4 7,5c0.5,0.4 1.1,0.7 1.6,1.1c0.8,0.5 1.1,0.4 1.5,-0.5l1.8,-4.5c0.5,-1.1 0.8,-2.4 1.7,-3.2c0.3,-0.3 0.7,-0.5 1.1,-0.6c4,-1.1 7.9,-2.3 11.9,-3.4c0.3,-0.1 0.7,-0.3 0.9,0.1c-0.5,4.5 -0.7,9 -1,13.5c-0.2,2.7 -0.4,2.9 -2.7,2.6c-3.9,-0.6 -7.8,-1.3 -11.7,-2c-0.3,-0.1 -0.6,-0.1 -0.9,-0.1c-0.8,-0.2 -1.3,0.2 -1.7,1c-0.4,0.9 -0.8,1.7 -1.1,2.6c-1.4,3.2 -2.8,6.4 -4.2,9.7c-0.6,1.4 -1.3,2.3 -2.8,2.4s-2.9,0.7 -4.4,1.1c-1.9,0.5 -3.8,1 -5.7,1.4c-0.8,0.2 -1.5,0.6 -2.4,0.6c-2.7,-0.3 -5.4,-0.7 -8.1,-1.2c-0.2,0 -0.5,-0.1 -0.7,-0.4l0,-14.1z" />
      <path
         id="path11"
         fill="#FED1D0"
         d="m0,31.9l0,-7.1c1.1,-2 2.7,-3.6 4.1,-5.4c0.5,-0.7 1.1,-1.4 1.7,-2.2c0.6,-0.9 1.4,-1.3 2.3,-1.4c2.3,-0.2 4.5,-0.5 6.8,-0.7c2.1,-0.2 4.2,-0.4 6.3,-0.7c0.8,-0.1 1.5,-0.7 2.2,-0.9c2.6,-0.9 5.1,-1.8 7.7,-2.7c1.1,-0.4 1.3,-0.6 1.3,-2c0,-1.6 0.2,-3.1 0.2,-4.7c0,-1.4 0.5,-2 1.7,-2.1c2.4,-0.2 4.8,-0.5 7.2,-0.7c1.6,-0.1 3.2,-0.2 4.6,-1.2l14.7,0c0.7,0.4 0.3,0.9 0,1.2c-0.5,0.5 -1.1,0.7 -1.7,1c-1.5,0.6 -2.7,1.7 -3.9,2.8c-1.7,1.5 -3.3,3 -5.1,4.4c-0.8,0.6 -1.4,1.3 -2,2.1c-0.5,0.6 -1.1,0.9 -1.8,0.9c-1.7,-0.1 -3.4,-0.3 -5.1,-0.5c-2.5,-0.2 -5,-0.6 -7.5,-0.8c-1,-0.1 -1.7,0.5 -1.7,1.8c-0.1,1.3 -0.1,2.6 0,3.9c0.3,3 0,6 0.3,8.9c0.1,0.5 0.2,1.4 -0.4,1.6s-0.8,-0.6 -1.1,-1.1c-2.3,-3.2 -4.3,-6.8 -6.5,-10.1c-0.3,-0.4 -0.5,-1 -1.1,-0.9s-0.7,0.7 -0.9,1.2c-0.9,2.7 -1.8,5.4 -2.6,8.2c-0.4,1.5 -1.2,2.3 -2.6,2.6c-2.8,0.6 -5.6,1.4 -8.4,2.1c-0.7,0.3 -0.9,0.6 -1,1.4c-0.2,3.4 -0.2,6.9 -0.5,10.3c-0.1,0.7 0,1.5 0,2.2c0,0.4 0,0.7 -0.3,0.9c-0.4,0.2 -0.7,-0.2 -0.9,-0.5c-0.2,-0.2 -0.3,-0.5 -0.5,-0.8c-1.7,-3.4 -3.4,-6.7 -5.1,-10.1c-0.1,-0.2 -0.2,-0.6 -0.4,-0.9z" />
      <path
         id="path13"
         fill="#FD90BB"
         d="m0,113.1l0,-20.8c1.2,-1.3 2.6,-2.4 3.9,-3.6c1.1,-1 2.1,-2 3.2,-2.8c0.2,-0.2 0.5,-0.5 0.8,-0.3c0.4,0.2 0.4,0.6 0.4,1c0,1.4 -0.5,2.7 -0.7,4.1c-0.4,2.3 -0.7,4.5 -1,6.8c-0.1,1 -0.6,1.9 -0.5,3.2c0.9,-1.2 1.7,-2.1 2.5,-3.1c2.8,-3.6 5.7,-7.1 8.5,-10.7c0.9,-1.2 2,-1.6 3.3,-1.3c1,0.2 2.1,0.2 3.2,0.1c3,-0.3 6.1,-0.2 9.1,-0.6c0.4,0 0.8,-0.2 1.2,0.1c0.3,0.4 0.2,0.8 0.1,1.3c-0.3,3 -0.7,6 -0.8,9l0,0.3c-0.3,0.6 -0.9,0.8 -1.4,1c-2.8,1.2 -5.5,2.3 -8.3,3.5c-0.5,0.2 -1,0.4 -1.3,0.9c-2.1,2.8 -4.5,5.2 -6.7,7.9c-1.2,1.4 -2.3,2.7 -3.5,4c-0.8,1 -1.8,1.5 -3,1.3c-2.7,-0.4 -5.4,-0.5 -8.1,-1c-0.4,0 -0.7,-0.1 -0.9,-0.3z" />
      <path
         id="path15"
         fill="#FEDBD7"
         d="m46,0.3c-0.5,1.2 -1.6,1.1 -2.4,1.2c-3,0.4 -6.1,0.6 -9.2,0.9c-1.3,0.1 -1.5,0.5 -1.5,1.9c0,1.7 -0.1,3.4 -0.2,5.1c0,0.9 -0.4,1.5 -1.3,1.7c-2.8,0.9 -5.7,1.7 -8.4,3c-2.1,1 -4.3,0.9 -6.4,1.2c-2.3,0.3 -4.7,0.5 -7,0.8c-0.7,0.1 -1.5,0.1 -2.2,0.2c-0.5,0.1 -0.9,0.4 -1.2,0.8c-1.9,2.5 -3.8,4.9 -5.7,7.4c-0.1,0.2 -0.4,0.2 -0.5,0.4l0,-24.6c0.3,-0.2 0.7,-0.1 1,-0.1l44,0c0.3,0 0.7,-0.1 1,0.1z" />
      <path
         id="path17"
         fill="#FEC8CB"
         d="m85.6,0.3c-0.2,1 -0.7,1.5 -1.7,1.5c-2.6,0 -5.2,-0.2 -7.8,-0.3c-1.7,-0.1 -3.3,0 -5,-0.2c-0.8,-0.1 -1.2,0.3 -1.4,1.3c-0.7,4.1 -1.6,8.1 -2.3,12.1c-0.2,1 -0.5,1.2 -1.5,1c-2.4,-0.5 -4.8,-0.9 -7.1,-1.3c-0.7,-0.1 -1.2,0.4 -2,0.3c-2.6,-0.6 -5.3,-1 -7.9,-1.6c-1.2,-0.3 -1.4,-0.2 -1.7,1.2c-0.8,3.7 -1.6,7.3 -2.4,11c-0.2,0.9 -0.6,1.4 -1.4,1.7l-9.3,3.3c-1.7,0.6 -2.9,2 -4.2,3.1c-4,3.6 -8,7.1 -11.9,10.8c-1,0.9 -2.2,0.6 -3.3,0.8c-2.2,0.3 -4.4,0.3 -6.6,0.5c-1.3,0.1 -2.3,1 -3.3,1.9l-4.5,4.5c0,0.1 -0.1,0.1 -0.3,0.2l0,-7.1c0.4,-0.4 0.8,-0.4 1.3,-0.4l4.8,0c0.9,0 1.1,-0.2 1.1,-1.2c0,-3.4 0.4,-6.8 0.4,-10.2c0,-0.9 0.2,-1.7 0.2,-2.6c0,-0.8 0.6,-1.1 1.2,-0.6c0.3,0.2 0.4,0.6 0.6,0.9c2.3,3.6 4.6,7.2 6.9,10.8c0.2,0.3 0.4,0.6 0.7,0.9c0.1,-0.9 0.2,-1.8 0.2,-2.6c0.1,-3.8 0.4,-7.7 0.6,-11.5c0.1,-1.7 0.6,-2.2 2.1,-1.8c3.5,1 6.9,2.1 10.4,3.1c0.5,0.1 0.9,0.3 1.4,0.4c0.8,0.2 1.1,-0.1 1.1,-1.1c-0.1,-2.7 -0.1,-5.4 -0.2,-8.1c-0.1,-2.5 -0.1,-4.9 -0.2,-7.4c0,-0.4 0,-0.9 0.3,-1.1c0.4,-0.2 0.7,0.2 1,0.6l6,7.8c1.1,1.5 2.2,2.9 3.3,4.3c0.7,0.9 1,0.8 1.2,-0.4c0.7,-3.3 1.4,-6.5 2.2,-9.8c0.1,-0.4 0.2,-0.7 0.2,-1.1c0.4,-1.6 1,-2.1 2.4,-1.8c1.9,0.4 3.8,0.7 5.7,1.2c0.4,0.1 0.8,0.2 1.3,0.2c1,0.1 1.1,0.1 1.3,-1.1c0.5,-2.7 0.9,-5.6 1.5,-8.4c0.3,-1.8 0.8,-2.4 2.4,-2.7c0.8,-0.2 1.6,-0.2 2.4,-0.2c1.6,0.1 3.1,-0.2 4.7,-0.2c0.6,0 0.9,-0.6 1.4,-0.8l14.7,0c0.4,0.1 0.7,-0.1 1,0.2z" />
      <path
         id="path19"
         fill="#FECFCB"
         d="m69.8,0.3c0,0.8 -0.4,1 -1,1c-2.1,0.1 -4.1,0.3 -6.2,0.2c-0.7,0 -1.4,0.1 -2.1,0.2s-1,0.7 -1.1,1.4c-0.5,3.1 -1.1,6.3 -1.6,9.4c-0.3,1.6 -0.3,1.6 -1.7,1.4c-2.2,-0.4 -4.5,-0.8 -6.7,-1.3c-1.6,-0.4 -2,-0.1 -2.4,1.7l-2.4,10.8c-0.1,0.5 -0.2,1.1 -0.7,1.3c-0.6,0.2 -0.8,-0.4 -1.1,-0.8c-2.7,-3.6 -5.5,-7.3 -8.2,-10.9c-0.5,-0.7 -1.1,-1.4 -1.7,-2.2c-0.3,1.1 -0.1,2.2 0,3.1c0.1,1.2 0,2.4 0.1,3.6c0.1,2.9 0.2,5.8 0.3,8.8l0,1.5c0.1,0.8 -0.6,1.3 -1.3,1.1c-3.3,-1 -6.5,-2 -9.8,-3c-0.9,-0.3 -1.7,-0.6 -2.6,-0.8s-1.3,0.1 -1.3,1.2c-0.2,4 -0.5,8.1 -0.6,12.1c0,0.8 -0.2,1.6 -0.2,2.5c0,0.3 0.1,0.6 -0.2,0.7s-0.4,-0.3 -0.5,-0.5c-1.9,-2.9 -3.7,-5.9 -5.6,-8.8c-0.7,-1 -1.5,-2.3 -2.2,-3.5c-0.2,-0.3 -0.3,-0.5 -0.7,-0.4s-0.3,0.4 -0.3,0.7c-0.2,4.2 -0.5,8.4 -0.5,12.6c-0.1,1.6 -0.2,1.6 -1.6,1.6l-5.9,0l0,-13.1c1.2,1.2 1.8,3 2.6,4.5c1.3,2.4 2.4,4.8 3.7,7.2c0.1,0.2 0.2,0.6 0.5,0.5s0.2,-0.5 0.2,-0.7c0,-3.4 0.4,-6.8 0.4,-10.1c0,-0.7 0.2,-1.4 0.2,-2.2c0,-1.3 0.2,-1.5 1.3,-1.8c3,-0.7 6,-1.5 9,-2.3c0.7,-0.2 1.1,-0.6 1.3,-1.4c1,-3.1 1.9,-6.1 2.9,-9.2c0.2,-0.7 0.4,-1.5 1.3,-1.4c0.4,0 0.7,0.2 0.9,0.6c1.3,2.2 2.8,4.2 4.1,6.4c1.1,1.8 2.4,3.5 3.6,5.3c0,-0.9 0.1,-1.8 0,-2.7c-0.2,-1 -0.2,-2 -0.1,-3c0.1,-2.8 -0.3,-5.6 -0.2,-8.4c0.1,-1.7 0.8,-2.5 2.2,-2.4c3.5,0.4 7,0.7 10.5,1.1c0.3,0 0.7,0.1 1,0.2c1.4,0.4 2.5,-0.3 3.3,-1.5c0.7,-1.1 1.8,-1.4 2.6,-2.3c1.3,-1.5 2.9,-2.4 4.2,-3.8c1.1,-1.1 2.4,-2.1 3.8,-2.6c0.7,-0.3 1.7,-0.4 1.8,-1.6c0.4,-0.2 0.8,-0.1 1.2,-0.1l6.7,0c0.2,0 0.5,-0.1 0.8,0.1z" />
      <path
         id="path21"
         fill="#A2007F"
         d="m263.5,113.7l0,6c-0.9,1.4 -2.1,2.6 -3.1,3.9c-1.5,1.9 -3.2,3.7 -4.9,5.6c-0.8,0.9 -1.6,0.9 -2.5,0.5c-2.3,-1 -4.6,-2 -6.8,-3.1c-1.1,-0.5 -1.8,-0.3 -2.6,0.6c-3.9,4.5 -7.8,8.9 -11.7,13.4c-0.9,1 -1.9,1.7 -3.2,2c-2.7,0.4 -5.3,1 -8,1.5c-1.7,0.3 -1.7,0.3 -1.9,2.3c-0.2,2.1 -0.3,4.2 -0.4,6.3s-0.1,2.1 -1.8,2.7c-0.1,0 -0.2,0.1 -0.3,0.2l-20.5,0c-0.1,-0.8 0.4,-1.1 0.8,-1.5c2.3,-2.2 4.7,-4.5 7,-6.8c0.6,-0.5 1.1,-1.1 1.5,-1.7c0.6,-0.8 1.3,-1.1 2.2,-1.2c3.4,-0.2 6.9,-0.4 10.3,-0.6c1.1,-0.1 1.9,-0.7 2.5,-1.7c2.3,-3.8 4.7,-7.6 7,-11.4c0.2,-0.4 0.4,-0.7 0.7,-1.1c0.2,-0.3 0.5,-0.7 0.9,-0.5c0.4,0.1 0.6,0.6 0.7,1c0.1,0.8 0.2,1.5 0.3,2.3c0.2,2.2 0.5,4.5 1,6.7c0.1,0.7 0.4,0.7 0.8,0.3c0.6,-0.6 1.1,-1.3 1.7,-1.9c3,-3.5 6,-6.9 9.1,-10.4c0.6,-0.7 1.2,-1.3 2,-1.4c0.5,-0.1 0.8,-0.5 1,-0.9c2.4,-4 4.8,-8 7.2,-12c0.1,-0.2 0.2,-0.4 0.4,-0.6c0.6,-1 1.3,-1.3 2.3,-0.9c2.3,0.7 4.7,1.4 7,2c0.6,-0.1 1,0 1.3,0.4z" />
      <path
         id="path23"
         fill="#F383B3"
         d="m0,113.1c2.1,0.2 4.2,0.5 6.3,0.7c1,0.1 1.9,0.2 2.9,0.3s1.8,-0.3 2.4,-1.1c3.2,-3.7 6.4,-7.3 9.6,-11c0.3,-0.3 0.5,-0.7 0.8,-1c0.7,-0.3 1,0.4 1.2,0.9c1.3,2.3 2.6,4.5 3.8,6.8c0.8,1.4 1.5,2.8 2.4,4.2c0.4,0.7 0.9,0.9 1.7,0.9c2.1,0 4.3,0.3 6.4,0.6c1.2,0.2 2.3,0.3 3.5,0.4c0.7,0.1 1.5,0.1 1.9,0.9l0,0.3c-0.9,0.5 -1.9,0.1 -2.8,0c-2.6,-0.3 -5.2,-0.6 -7.9,-0.9c-1.1,-0.2 -1.9,0.2 -2.6,1.2c-1.8,2.5 -3.6,4.8 -5.4,7.3c-0.4,0.5 -0.8,1 -1.3,1.3c-4.3,0.9 -8.5,2 -12.7,3.4c-1.9,0.6 -3.6,0.6 -5.5,-0.1c-1.2,-0.5 -2.5,-0.8 -3.8,-1.1c-0.4,-0.1 -0.8,-0.2 -1,-0.7c0.1,-4.5 0.1,-8.9 0.1,-13.3z" />
      <path
         id="path25"
         fill="#FE97B6"
         d="m33.8,85.2c-0.7,0.4 -1.4,0.4 -2.1,0.4c-1.7,0 -3.4,0.3 -5.1,0.3c-1.8,0 -3.5,0.3 -5.2,0.2c-0.5,0 -0.9,0 -1.3,-0.2c-1.5,-0.5 -2.3,0.7 -3.1,1.7c-1.5,1.9 -3,3.9 -4.5,5.8c-1.8,2.3 -3.7,4.6 -5.5,6.9c-0.1,0.1 -0.2,0.3 -0.3,0.4c-0.2,0.2 -0.4,0.7 -0.7,0.4c-0.4,-0.2 0,-0.6 0,-0.9c0,-1.4 0.4,-2.7 0.6,-4c0.3,-1.9 0.5,-3.8 0.9,-5.7c0.1,-1.4 0.5,-2.7 0.5,-4c0,-0.3 0.1,-0.6 -0.2,-0.8c-0.2,-0.1 -0.4,0.2 -0.5,0.3c-2.1,1.9 -4.2,3.8 -6.4,5.6c-0.3,0.3 -0.6,0.5 -1,0.6l0,-0.6c0.8,-1.1 1.9,-1.8 2.8,-2.6c1.4,-1.3 2.9,-2.6 4.4,-3.9c0.8,-0.7 1.6,-1 2.6,-0.8c2.5,0.4 5.1,0.6 7.7,0.9c0.6,0.1 1.2,0 1.7,-0.5c0.3,-0.2 0.4,-0.5 0.4,-0.9c0.9,-3.9 1.9,-7.9 2.9,-11.8c0.1,-0.6 0.1,-1.3 0.7,-1.5s0.9,0.5 1.2,0.9c2.7,3.7 5.2,7.4 7.9,11.1c0.3,0.5 0.6,1.3 1.2,1.1c0.5,-0.2 0.2,-1 0.3,-1.6c0.3,-3.9 0.4,-7.8 0.7,-11.7c0.1,-1.4 0.5,-1.8 1.7,-1.9c3.2,-0.2 6.4,-0.2 9.5,-0.7c3.6,-0.6 7.2,0.4 10.7,0.5c0.5,0 1.1,0.1 1.6,0.1c0.4,0.1 0.9,0.1 1.2,0.6c-0.3,0.7 -0.9,0.5 -1.4,0.5c-1.7,-0.1 -3.4,-0.3 -5.1,-0.5c-1.4,-0.1 -2.9,-0.3 -4.3,-0.4c-0.7,-0.1 -0.8,0.4 -0.9,1c-0.4,3.2 -0.8,6.4 -1.2,9.7c-0.2,1.5 -0.4,3.1 -0.6,4.6c-0.1,1.2 -0.6,1.6 -1.7,1.5c-2.7,-0.1 -5.4,-0.2 -8.1,-0.5c-0.7,0.1 -1.3,0.3 -2,0.4z" />
      <path
         id="path27"
         fill="#AC0080"
         d="m263.5,113.7c-2.8,-0.8 -5.6,-1.5 -8.4,-2.4c-0.8,-0.3 -1.3,-0.1 -1.8,0.7c-2.5,4.2 -5.1,8.4 -7.6,12.7c-0.2,0.4 -0.5,0.6 -0.8,0.8c-1,0.3 -1.8,1.1 -2.5,1.9c-3.4,3.9 -6.8,7.8 -10.2,11.7c-0.2,0.2 -0.3,0.4 -0.5,0.6s-0.5,0.6 -0.8,0.4c-0.3,-0.1 -0.2,-0.6 -0.2,-0.9c-0.3,-1.7 -0.6,-3.4 -0.8,-5.1c-0.2,-1.3 -0.3,-2.6 -0.4,-3.8c0,-0.4 -0.1,-0.9 -0.4,-1.1c-0.4,-0.2 -0.5,0.3 -0.7,0.6c-2.5,4.1 -5.1,8.2 -7.6,12.4c-0.8,1.3 -1.7,1.8 -3,1.9c-3.6,0.2 -7.1,0.4 -10.7,0.6c-0.5,0 -0.9,0.3 -1.1,0.7c-1.1,1.7 -2.6,2.8 -4,4.2c-1.9,2 -4.1,3.7 -5.8,5.9l-1.1,0c-0.4,-0.7 0.1,-1.1 0.5,-1.5c1.6,-1.6 3.3,-3.2 5,-4.8c1.1,-1.1 2.2,-2.1 3.3,-3.1c0.7,-0.7 1.5,-1.3 2.4,-1.6c1.9,-3.1 3.8,-6.2 5.7,-9.2c1.6,-2.5 3.2,-5.1 4.7,-7.7c0.7,-1.2 1.5,-1.5 2.7,-1.3c2.8,0.5 5.6,1.1 8.5,1.6c0.4,0.1 0.9,0.1 1.2,-0.1c1.4,-1 3.1,-0.8 4.6,-1.1c2.5,-0.4 5,-0.7 7.4,-1c1,-0.1 2,-0.4 3.1,-0.3c0.5,0.1 0.9,-0.2 1.2,-0.7c2.4,-4.1 4.9,-8.1 7.3,-12.1c0.4,-0.7 1,-1.2 1.5,-1.7c0.3,-0.4 0.4,-0.8 0.4,-1.3c-0.1,-1.7 -0.2,-3.5 -0.3,-5.3c0,-0.1 0,-0.2 0.1,-0.4c1.4,1.2 2.7,2.3 4,3.5c1.6,1.4 3.2,2.9 4.9,4.3c0.2,0.2 0.4,0.2 0.7,0.3c-0.5,0.4 -0.5,1.1 -0.5,1.7z" />
      <path
         id="path29"
         fill="#DF7CAE"
         d="m0,126.4c2.5,0.7 5,1.5 7.5,2.2c0.2,0 0.4,0.1 0.5,0c3.6,-1.4 7.4,-2.1 11,-3.1c1.2,-0.4 2.5,-0.8 3.8,-0.7c0.3,-0.1 0.6,-0.1 0.9,0c2.4,0.6 4.7,1.2 7.1,1.7c0.3,0.1 0.6,0.1 0.8,0.4c0.2,0.2 0.2,0.4 0,0.6c-0.2,0.3 -0.4,0.6 -0.6,0.8c-1.6,1.6 -2.9,3.7 -4.4,5.4c-1,1.1 -1.8,2.5 -2.9,3.5c-0.9,0.9 -1.3,2.2 -2.1,3.2c-1.6,0.7 -3.3,0.9 -4.9,1.4c-2.8,0.7 -5.7,1.5 -8.5,2.2c-0.8,0.2 -1.5,0.2 -2.3,-0.1c-1.7,-0.7 -3.4,-1.4 -5.1,-2.2c-0.3,-0.1 -0.7,-0.3 -0.8,-0.7l0,-14.6z" />
      <path
         id="path31"
         fill="#9E007E"
         d="m216.4,155.5c0.1,-0.5 0.5,-0.6 0.8,-0.6c0.7,-0.1 1,-0.6 1,-1.4c0.1,-2.8 0.3,-5.5 0.5,-8.3c0.1,-0.9 0.4,-1.3 1.1,-1.4c3.2,-0.6 6.5,-1.3 9.7,-1.9c0.6,-0.1 1.1,-0.4 1.6,-0.9c4.2,-4.8 8.4,-9.6 12.6,-14.4c0.8,-0.9 1.4,-1 2.4,-0.5c2.4,1.2 4.8,2.2 7.2,3.3c0.8,0.4 1.4,0.3 2,-0.5c2.4,-2.8 4.8,-5.5 7.1,-8.3c0.3,-0.4 0.6,-0.7 1.1,-0.9l0,8.7c-0.3,0.3 -0.6,0.3 -1,0.4c-2.1,0.4 -4.2,0.6 -6.3,1c-1,0.2 -1.8,0.7 -2.4,1.7c-2.4,3.9 -4.7,7.9 -7.1,11.8c-0.6,1 -1.3,1.3 -2.4,1.1c-4,-0.8 -7.9,-1.6 -11.9,-2.3c-1.4,-0.3 -1.5,-0.2 -1.8,1.5c-0.7,3.5 -1.3,7 -2,10.6c-0.1,0.5 -0.1,1 -0.5,1.3l-7.8,0c-0.9,-0.6 -1.8,-0.6 -2.7,0l-1.2,0z" />
      <path
         id="path33"
         fill="#94007C"
         d="m228.3,155.5c0.2,-2.1 0.7,-4.1 1,-6.1c0.4,-2.1 0.8,-4.1 1.1,-6.2c0.3,-1.6 0.5,-1.7 1.8,-1.5c4.2,0.8 8.5,1.6 12.7,2.5c0.6,0.1 1,-0.1 1.3,-0.7c2.5,-4.1 5,-8.2 7.4,-12.4c0.7,-1.2 1.7,-1.5 2.8,-1.7c2.3,-0.3 4.6,-0.8 7,-1l0,12.3c-0.3,0.4 -0.7,0.4 -1.1,0.4c-0.6,0 -1.2,0.1 -1.8,0.1c-3.1,0 -5.9,1.4 -8.8,2.1c-1.4,0.4 -2.9,0.9 -4.3,1.2c-1,0.2 -1.5,0.9 -1.6,2c-0.3,2.5 -0.6,4.9 -0.9,7.4c-0.1,0.5 -0.1,1.1 -0.5,1.5c-5.4,0.1 -10.8,0.1 -16.1,0.1z" />
      <path
         id="path35"
         fill="#CD78AE"
         d="m0,140.9c1.7,0.7 3.4,1.4 5,2.2c1.3,0.6 2.6,0.7 4,0.3l11.4,-3c0.4,-0.1 0.9,0 1.2,-0.3c0.3,-0.2 0.6,-0.2 1,-0.2c2.8,0.5 5.6,1.1 8.4,1.7c0.2,0 0.4,0.1 0.6,0.3c0.4,0.6 0,0.9 -0.3,1.2c-1.4,1.7 -2.8,3.5 -4.2,5.2c-1.9,2.4 -3.8,4.8 -5.8,7.2l-20.6,0c-0.5,0 -0.7,-0.1 -0.7,-0.8l0,-13.8z" />
      <path
         id="path37"
         fill="#C4689F"
         d="m263.5,15.9l0,12.1c-0.4,0.6 -0.9,0.7 -1.5,0.9c-2.5,0.9 -4.9,1.7 -7.4,2.5c-0.8,0.3 -1.2,0.7 -1.3,1.7c-0.1,2.3 -0.3,4.6 -0.5,6.9c0,0.5 0,1.1 -0.4,1.4c-0.6,0.2 -0.9,-0.3 -1.1,-0.8c-1.9,-3 -3.7,-6.1 -5.5,-9.1c-0.1,-0.2 -0.2,-0.4 -0.4,-0.6c-1.7,-1.6 -2.2,-4 -2.8,-6.3c-0.5,-2 -1,-3.9 -1.5,-5.9c-0.1,-0.5 -0.2,-0.9 -0.1,-1.4c0,-0.1 0.1,-0.2 0.2,-0.3c0.4,-0.4 0.9,-0.5 1.4,-0.5c3.9,-0.6 7.8,-1.2 11.7,-1.7c0.1,0 0.3,0 0.4,-0.1c2.4,-1 4.7,-0.3 7,0.4c0.8,0.2 1.4,0.3 1.8,0.8z" />
      <path
         id="path39"
         fill="#CA609C"
         d="m79.1,155.5l-32.9,0c-0.3,-0.9 0.4,-1.2 0.8,-1.6c1.5,-1.4 3.1,-2.9 4.6,-4.3c2,-1.9 4,-3.7 5.9,-5.7c1.3,-0.4 2.7,-0.4 4,-0.6c2.7,-0.3 5.3,-0.5 8,-0.9c0.3,-0.1 0.5,0 0.8,0c2.7,0.1 5.4,0.2 8.1,0.5c1.2,0.1 1.5,0.6 1.6,1.9c0.1,1.9 0.3,3.7 0.3,5.6c0,0.7 0.1,1.4 0.3,2.2c0.1,0.6 -0.2,1 -0.5,1.3c-0.4,0.6 -0.6,1.2 -1,1.6z" />
      <path
         id="path41"
         fill="#C672A7"
         d="m263.5,15.9c-1.1,0 -2.2,-0.4 -3.2,-0.7c-1.7,-0.7 -3.4,-0.4 -5.1,0c-2.5,0.5 -5.1,0.8 -7.7,1.2c-2.1,0.3 -4.1,0.5 -6.2,1c-0.3,-0.8 -0.2,-1.6 -0.1,-2.5c0.2,-1.8 0.2,-3.6 0.3,-5.4s0.3,-3.7 0.2,-5.5c0,-0.3 0.1,-0.7 0.1,-1c0.2,-1.3 0.8,-2.1 2,-2.2c1.3,-0.2 2.7,-0.4 4,-0.6l14.9,0c0.3,0 0.5,-0.1 0.8,0.1l0,15.6z" />
      <path
         id="path43"
         fill="#FEA3C0"
         d="m19.3,85c-0.3,0.6 -0.8,0.7 -1.3,0.6c-2.1,-0.2 -4.2,-0.5 -6.3,-0.7c-0.8,-0.1 -1.7,-0.2 -2.5,-0.3c-0.7,-0.1 -1.2,0.3 -1.7,0.8c-2.2,2 -4.4,4 -6.7,6c-0.2,0.2 -0.5,0.2 -0.7,0.4c-0.1,-7.1 -0.1,-13.9 -0.1,-20.8c2.1,0.3 4.2,0.6 6.3,0.9c0.9,0.1 1.7,0.2 2.6,0.3c0.4,0.2 0.7,0.1 1.1,0c3.7,-1 7.5,-1.9 11.3,-2.9c0.7,-0.2 1.4,-0.4 2.2,-0.4c0.1,0.1 0.2,0.3 0.2,0.5c-1.6,3.1 -1.9,6.8 -2.9,10.1c-0.6,1.9 -0.9,3.7 -1.5,5.5z" />
      <path
         id="path45"
         fill="#BF008C"
         d="m182.1,143.2c-1.3,0.8 -2.2,2.1 -3.2,3.2c-2.6,2.8 -5.1,5.7 -7.7,8.5c-0.1,0.2 -0.2,0.4 -0.4,0.6l-15.4,0c-0.4,-0.5 -0.4,-1.2 -0.5,-1.8c-0.3,-4.3 -0.7,-8.5 -1.1,-12.8c0,-0.3 0,-0.7 0.1,-1c0.4,-0.7 1,-0.6 1.6,-0.5c4.3,0.8 8.6,1.6 12.9,2.4c0.3,0.1 0.6,0.2 0.9,0.2c3.8,-0.1 7.7,0.4 11.5,0.8c0.4,0 0.8,-0.2 1.2,0.1c0.1,0.1 0.2,0.2 0.1,0.3z" />
      <path
         id="path47"
         fill="#D34396"
         d="m108,155.5l-0.4,0c-0.4,-0.3 -0.5,-0.8 -0.5,-1.4c-0.4,-3.1 -0.5,-6.2 -1.1,-9.2c0,-2.9 -0.7,-5.7 -1,-8.6l-0.9,-6.6c-0.2,-1.4 0.2,-1.9 1.4,-2c0.4,0 0.7,-0.2 1.1,-0.2c2,-0.4 4.1,-0.3 6.1,-0.5c2.2,-0.2 4.3,-0.2 6.5,-0.4c0.6,-0.1 1.1,-0.1 1.7,0.1c0.1,0 0.2,0.1 0.3,0.2c0.5,0.6 0.2,1.3 0,1.9c-1.1,4.1 -2.2,8.2 -3.4,12.3c-0.3,1.2 -0.7,2.4 -0.9,3.6c-0.2,0.6 -0.5,1.1 -0.8,1.6c-2.3,2.8 -4.6,5.5 -6.9,8.3c-0.4,0.2 -0.8,0.5 -1.2,0.9z" />
      <path
         id="path49"
         fill="#BF5B9A"
         d="m252.4,41.5c0.4,-1.1 0.2,-2.2 0.3,-3.3c0.3,-1.8 0.3,-3.7 0.4,-5.6c0,-0.8 0.3,-1.2 0.9,-1.4c3.2,-1.1 6.3,-2.2 9.4,-3.3l0,19.6c-0.6,0.9 -1.5,1.3 -2.3,1.9c-1.7,1.2 -3.4,2.6 -5.1,3.7c-0.5,0.3 -1.1,0.7 -1.8,0.4c-2,-2.2 -4.4,-3.7 -6.7,-5.4c-1.1,-0.8 -2.2,-1.8 -3.4,-2.5c-0.3,-0.2 -0.4,-0.5 -0.3,-0.9c0.2,-0.6 0.7,-0.7 1.2,-0.8c1.6,-0.4 3.2,-0.9 4.8,-1.3c0.9,-0.3 1.8,-0.5 2.6,-1.1z" />
      <path
         id="path51"
         fill="#C94E98"
         d="m106.1,144.9c0.6,0.6 0.4,1.4 0.5,2.1c0.3,2.6 0.5,5.2 0.8,7.8c0,0.2 0.1,0.5 0.2,0.7l-28.5,0c0,-1.2 1,-1.6 1.5,-2.5c0.1,-0.4 0.4,-0.7 0.7,-0.9c3.4,-2.9 6.9,-5.8 10.4,-8.7c0.5,-0.4 1,-0.7 1.5,-0.8c3.2,0.4 6.3,0.9 9.5,1.4l2.4,0.3c0.3,0.1 0.8,0.1 1,0.6z" />
      <path
         id="path53"
         fill="#C96FA5"
         d="m57.4,144.3c-1.2,1.7 -2.8,2.8 -4.2,4.2c-2.1,2 -4.3,4 -6.4,6c-0.3,0.3 -0.6,0.5 -0.7,1.1l-24.9,0c0,-0.4 0.2,-0.8 0.5,-1.1c2.4,-2.9 4.8,-5.8 7,-8.7c0.9,-1.2 2,-2.2 2.8,-3.5c0.1,-0.1 0.3,-0.2 0.4,-0.2c2.9,0.4 5.8,0.5 8.7,0.9c1.4,0.2 2.8,0.2 4.2,0.4c1,0.2 1.2,0.5 1.4,1.7c0.2,2.4 0.2,4.8 0.2,7.2c0,0.4 -0.1,0.8 0.2,1.2c0.7,-0.4 1.3,-1.1 1.9,-1.7c2.4,-2.3 4.8,-4.5 7.2,-6.8c0.6,-0.5 1,-1.1 1.7,-0.7z" />
      <path
         id="path55"
         fill="#CB248E"
         d="m143.4,155.5l-12.7,0c-0.4,-0.5 -0.5,-1.1 -0.5,-1.7c0,-2.6 -0.1,-5.3 -0.2,-7.9c0,-0.7 0,-1.4 0.4,-2.1l0.3,-0.6c3.3,-3.9 6.5,-7.9 9.8,-11.7c0.4,-0.4 0.6,-0.9 1,-1.3c0.3,-0.3 0.6,-0.6 1,0c0.4,3.8 0.9,7.6 1.2,11.4c0.1,1 0.3,2 0.7,3c-0.2,2.6 -0.3,5.2 -0.5,7.9c0,0.7 -0.1,1.3 -0.1,2c-0.1,0.3 -0.1,0.7 -0.4,1z" />
      <path
         id="path57"
         fill="#800079"
         d="m244.4,155.5c0.4,-3.3 0.9,-6.7 1.3,-10c0.1,-1 0.8,-1 1.4,-1.2c2.8,-0.8 5.6,-1.4 8.3,-2.4s5.4,-1.1 8.1,-1.1l0,14c0,0.6 -0.1,0.7 -0.7,0.7l-18.4,0z" />
      <path
         id="path59"
         fill="#C2258D"
         d="m263.5,69.1l0,16.9c-0.5,0.5 -1,0.4 -1.5,0.3c-2.6,-0.3 -5.2,-1 -7.8,-0.7c-2.8,0.3 -5.6,-0.1 -8.3,0.3c-0.9,0.1 -1.7,0.1 -2.6,-0.1c-0.7,-0.4 -0.4,-1 -0.1,-1.5c0.8,-1.3 1.7,-2.3 2.6,-3.4c2.5,-3.2 5,-6.3 7.4,-9.5c0.6,-0.8 1.2,-1.4 1.8,-2.2c0.3,-0.2 0.7,-0.3 1,-0.5c2.2,-0.2 4.3,-0.1 6.5,-0.1c0.4,0.1 0.8,0.3 1,0.5z" />
      <path
         id="path61"
         fill="#CD3491"
         d="m130.7,143.6c-0.6,1.3 -0.4,2.7 -0.3,4.1c0.2,1.6 0.1,3.2 0.1,4.7c0,1 0.2,2 0.2,3.1l-22.7,0c0.3,-1 1.2,-1.5 1.8,-2.3c2,-2.5 4.1,-4.9 6.1,-7.3c0.3,-0.4 0.5,-0.8 0.8,-1.2s0.8,-0.6 1.2,-0.6c2.2,-0.1 4.4,-0.3 6.7,-0.5c1.2,-0.1 2.5,-0.2 3.7,-0.3c0.8,-0.1 1.6,-0.4 2.4,0.3z" />
      <path
         id="path63"
         fill="#BD0F8C"
         d="m243,85.6c3.3,0 6.5,-0.1 9.8,-0.3s6.4,0.3 9.6,0.7c0.4,0.1 0.8,0 1.2,0l0,3.5c-1.5,1.3 -2.6,3.1 -3.9,4.6c-0.9,1 -1.6,2.1 -2.5,3.2c-1.1,1.4 -2.2,2.8 -3.3,4.2c-0.3,0.4 -0.6,0.6 -1.1,0.5c-0.4,-0.2 -0.6,-0.6 -0.9,-1c-2.8,-4.7 -5.8,-9.3 -8.6,-14c-0.2,-0.3 -0.4,-0.7 -0.5,-1.1l0,-0.1c0.1,-0.1 0.1,-0.2 0.2,-0.2z" />
      <path
         id="path65"
         fill="#BF4594"
         d="m263.5,69.1l-7.6,0c-1,-0.6 -1.3,-1.7 -1.4,-2.7c-0.3,-2.6 -0.5,-5.2 -0.7,-7.7c-0.1,-0.8 -0.2,-1.6 -0.2,-2.5c0,-0.8 -0.3,-1 -0.9,-0.7c-2.8,0.9 -5.6,1.8 -8.4,2.7c-0.8,0.2 -1.6,0.6 -2.4,0.4c-0.4,-0.1 -0.7,-0.2 -0.9,-0.6c0,-0.6 0.4,-0.7 0.8,-0.8c3.9,-1.2 7.8,-2.5 11.6,-3.8c0.3,-0.1 0.6,-0.1 0.9,0c1.1,0 2,-0.7 2.9,-1.3c2,-1.4 4,-2.9 5.9,-4.3c0.1,-0.1 0.3,-0.1 0.4,-0.2l0,21.5z" />
      <path
         id="path67"
         fill="#C3158D"
         d="m143.4,155.5c0.1,-3.7 0.2,-7.4 0.7,-11c1.2,-0.9 2.5,-1.5 3.7,-2.2c1.7,-0.9 3.4,-1.9 5.2,-2.8c0.4,-0.2 0.7,-0.6 1.2,-0.3c0.1,0.2 0.1,0.4 -0.1,0.6c0.2,2.6 0.5,5.1 0.7,7.7c0.1,1.7 0.3,3.4 0.4,5.1c0.1,0.9 0.1,1.9 0.2,2.8c-4,0.1 -8,0.1 -12,0.1z" />
      <path
         id="path69"
         fill="#B10084"
         d="m205.9,144.5c-1,0.9 -2.1,1.7 -3,2.7c-1.8,1.8 -3.6,3.4 -5.4,5.2c-0.7,0.6 -1.3,1.3 -2,1.9c-0.3,0.3 -0.7,0.6 -0.7,1.3l-1.3,0c0.2,-2.9 0.8,-5.7 1.1,-8.6c0.2,-1.8 0.6,-3.6 0.9,-5.4c0.2,-1.1 0.4,-1.2 1.3,-0.8c2.6,1.1 5.2,2.3 7.8,3.5c0.5,0.1 0.9,0.2 1.3,0.2z" />
      <path
         id="path71"
         fill="#FEFEFE"
         d="m263.5,0.3l-15.8,0c-5.1,0.6 -10.2,0.4 -15.3,0.3l-0.4,0c-0.3,0.1 -0.6,0.1 -0.9,0.1l-23.9,0c-0.3,0 -0.6,0 -0.9,-0.1c-8.2,0.1 -16.5,0.1 -24.7,0c-3.5,0.1 -7,0.1 -10.6,0c-0.8,-0.2 -1.5,0 -2.3,0l-23.9,0c-0.6,-0.2 -1.3,0 -1.9,0l-24.3,0c-0.4,0 -0.7,0 -1.1,-0.1c-0.4,0.1 -0.8,0.1 -1.2,0.1l-18.4,0c-0.4,0 -0.8,0.1 -1.3,-0.1c-0.2,0 -0.3,-0.1 -0.5,-0.3l-10.7,0l-15.8,0l-8.7,0l-15.1,0l-40.8,0l-5.2,0c0,-0.1 -0.1,-0.2 0.1,-0.2l0.7,0l261.9,0c0.5,0.1 0.8,-0.2 1,0.3z" />
      <path
         id="path73"
         fill="#B10084"
         d="m182.8,155.5c-0.4,-1.3 -0.2,-2.6 -0.3,-3.9c-0.2,-2.1 -0.2,-4.3 -0.4,-6.4c0,-0.1 0,-0.3 0.1,-0.4c0.2,-0.1 0.3,0.1 0.5,0.2c1.1,1.3 2.3,2.5 3.3,3.8c0.9,1.2 1.8,2.2 2.8,3.3c0.9,1 1.8,2.1 2.4,3.3c-2.8,0.1 -5.6,0.1 -8.4,0.1z" />
      <path
         id="path75"
         fill="#94007C"
         d="m217.7,155.5c1,-1.1 1.9,-1.1 2.7,0l-2.7,0z" />
      <path
         id="path77"
         fill="#FEC1BF"
         d="m96.3,0.3l0.4,0c0.3,0.3 0.1,0.7 0.1,1.1c-0.6,3.6 -1.3,7.3 -2,10.9c-0.3,1.6 -0.8,1.9 -2.3,1.8c-2.3,-0.2 -4.5,-0.2 -6.8,-0.5c-0.4,0 -0.7,0.1 -1,0.5c-3.3,3.8 -6.8,7.3 -10.2,10.9c-1.4,1.5 -2.7,3.2 -4.4,4.2c-0.7,0.4 -1.1,1.3 -1.7,2c-2.5,3.2 -4.9,6.5 -7.3,9.8c-0.6,0.9 -1.4,1.2 -2.4,1c-3.6,-0.6 -7.1,-1.3 -10.7,-1.9c-0.2,0 -0.4,-0.1 -0.6,-0.3c-4.3,1.2 -8.7,2.5 -13,3.7c-0.7,0.2 -1.1,0.6 -1.3,1.2c-1,2.4 -1.9,4.7 -2.9,7c-0.4,1 -1,1.2 -1.8,0.6c-3,-2.2 -6,-4.4 -9,-6.5c-0.3,-0.2 -0.8,-0.2 -1,-0.6c0.5,-0.7 1.2,-0.6 1.8,-0.6c2.9,-0.1 5.8,-0.4 8.8,-0.5c1.3,-0.1 2.6,0 4,-0.3c0.6,-0.2 0.9,-0.5 0.9,-1.2c-0.1,-2.3 -0.3,-4.5 -0.5,-6.8l-0.3,-3.6c0,-0.7 0.2,-1 0.8,-1.2c3.2,-1.1 6.3,-2.3 9.5,-3.5c0.1,0 0.2,0 0.3,-0.1c1.5,-1.6 3.2,-0.7 4.8,-0.6c1.8,0.1 3.5,0.3 5.3,0.4l0.4,0c1.6,0.1 1.8,-0.2 2,-2.1c0.3,-2.3 0.8,-4.5 1.2,-6.8c0.1,-0.7 0.3,-1.3 0.3,-2c0.1,-1.1 0.7,-1.2 1.5,-1.1c1.2,0.2 2.3,0.3 3.5,0.6c2.5,0.7 4.9,0.4 7.4,-0.1c3.8,-0.9 7.7,-1.5 11.6,-2.2c0.8,-0.1 1.6,-0.3 2.4,-0.4c0.6,-0.1 0.9,-0.5 0.9,-1.2l0,-7.6l0,-0.8c0,-0.2 0.1,-0.5 0.3,-0.6s0.4,0.1 0.5,0.3c1,1.2 2,2.3 2.9,3.6c1,1.4 2.1,2.7 3.2,4c0.3,0.4 0.6,0.9 0.9,1.3c0.3,0.3 0.5,0.9 0.9,0.8s0.4,-0.7 0.5,-1.1c0.4,-2 0.7,-3.9 1.1,-5.9c0.3,-1.9 0.7,-3.8 1,-5.6z" />
      <path
         id="path79"
         fill="#BE0082"
         d="m182.1,143.2l0,-0.2c-0.1,-0.5 0.2,-0.7 0.4,-1c3.4,-3.7 6.9,-7.5 10.4,-11.2c0.6,-0.7 1.4,-1.1 2.2,-1.5c3,-1.6 6.2,-2.8 9.1,-4.6c0.3,-0.2 0.6,-0.3 1,-0.3c1.6,0 3.2,-0.1 4.8,0c2.1,0.2 4.1,0.1 6.2,0.2c0.8,0 1.1,-0.3 1.2,-1.2c0.3,-3 0.7,-5.9 1,-8.9c0.2,-2 0.4,-2.3 2.2,-2.5c3.4,-0.5 6.7,-0.9 10.1,-1.4l0.6,0c0.2,0 0.4,0.1 0.5,0.3c-0.9,4.8 -1.7,9.6 -2.5,14.4c-0.3,1.5 -0.3,1.7 -1.7,1.4c-2.9,-0.5 -5.8,-1.1 -8.6,-1.6c-1,-0.2 -1.9,0.3 -2.5,1.3c-3.1,5 -6.1,10.1 -9.2,15.2c-1.6,2.6 -1.1,2.3 -3.5,1.2c-2.3,-1 -4.5,-2 -6.8,-3c-0.3,-0.1 -0.6,-0.2 -0.9,-0.1c-4.3,1.2 -8.6,1.9 -12.9,3c-0.5,0.3 -0.8,0.4 -1.1,0.5z" />
      <path
         id="path81"
         fill="#C5008C"
         d="m231.7,111.2l-0.5,0c-0.8,-1.5 -2.1,-2.4 -3.2,-3.5c-2.1,-2.1 -4.3,-4.2 -6.5,-6.2l-0.2,-0.2c-0.9,-1 -0.8,-1.4 0.4,-1.8c2,-0.6 4,-1 5.9,-1.5c0.5,-0.1 1.1,-0.3 1.4,-0.8c0.6,-0.4 1.1,-0.8 1.6,-1.2c3.7,-3.2 7.4,-6.4 11.1,-9.5c0.4,-0.3 0.7,-0.8 1.3,-0.6c2.8,4.6 5.6,9.1 8.4,13.7c0.5,0.8 0.9,1.7 1.4,2.5c-2.5,-0.4 -5.1,-0.8 -7.6,-1.2c-1.2,-0.2 -1.9,0.4 -2.2,2c-0.4,1.9 -0.9,3.9 -1.3,5.8c-0.3,1.3 -0.5,1.5 -1.7,1.5c-2.2,0.1 -4.4,0.2 -6.6,0.4c-0.6,0 -1.2,0.2 -1.7,0.6z" />
      <path
         id="path83"
         fill="#FEB0BC"
         d="m47.4,39.8c2,-0.1 3.9,0.6 5.8,0.9c2.1,0.3 4.1,0.7 6.2,1.1c0.5,0.1 0.8,-0.3 1.1,-0.7c1.3,-1.7 2.6,-3.4 3.9,-5.2s2.7,-3.5 4,-5.4c1.5,-2.1 3.6,-3.2 5.2,-5.2c0.9,-1.1 2,-2.2 3,-3.3c2.5,-2.5 4.9,-5 7.2,-7.7c0.9,-1 1.6,-1.2 2.7,-1.1c2.1,0.2 4.3,0.2 6.4,0.5c0.8,0.1 1.1,-0.4 1.3,-1.2c0.8,-4.1 1.6,-8.2 2.3,-12.2l20.9,0c0.2,0.2 0.2,0.5 0.2,0.9c-0.1,3.5 0,7.1 -0.1,10.6l0,1c-0.1,0.9 -0.4,1.3 -1.2,1.3c-1.9,0 -3.8,-0.1 -5.7,-0.5c-1.3,-0.3 -2.7,-0.4 -4,0.2c-0.5,0.4 -0.5,1.1 -0.5,1.7c-0.4,4.2 -0.8,8.3 -1.2,12.5c0,0.3 -0.1,0.6 -0.1,0.9c-0.2,1.3 -0.5,1.6 -1.7,1.7l-4.8,0c-1.8,-0.1 -3.6,0.3 -5.4,0.2c-0.8,0 -1.4,0.4 -2,0.9c-2.7,2.4 -5.4,4.9 -8,7.4c-0.8,0.8 -1.6,1.3 -2.6,1.4c-3.7,0.6 -7.4,1.2 -11.1,1.8c-0.9,0.1 -1.5,0.5 -2.1,1.4c-1.9,3.1 -3.9,6 -5.8,9.1c-0.8,1.3 -1.9,1.9 -3.3,2.1c-3.7,0.4 -7.4,1 -11.1,1.5c-0.9,0.1 -1.6,0.6 -2.2,1.3c-2.8,3.2 -5.7,6.2 -8.5,9.3c-0.9,1.1 -1.9,1.5 -3.3,1.6c-2.5,0.1 -4.9,0.2 -7.4,0.5c-0.7,0.1 -1.5,0.1 -2.3,-0.1c-3.8,0.9 -7.6,1.9 -11.5,2.8c-1,0.2 -2,0.9 -3.1,0.3c1.6,-0.4 3.1,-0.7 4.7,-1.1c2.4,-0.6 4.9,-1.5 7.3,-1.8c1.9,-0.2 2.6,-1.4 3.3,-3.1c1.5,-3.7 3.2,-7.2 4.7,-10.9c1.1,-2.5 1.3,-2.1 3.2,-1.8c4.3,0.7 8.6,1.5 12.8,2.2c0.7,0.1 1.1,-0.1 1.1,-1.1c0.2,-3.4 0.4,-6.9 0.7,-10.3c0.1,-1 0.2,-2 0.2,-3c0.3,-0.4 0.5,-0.9 0.8,-1.4z" />
      <path
         id="path85"
         fill="#FE94B2"
         d="m33.8,85.2c0.7,-1.1 1.7,-0.5 2.6,-0.6c0.3,0 0.6,0.1 0.9,0.1c2.3,0 4.7,0.2 7,0.4c0.6,0 0.9,-0.4 0.9,-1l1.8,-15c0.1,-0.8 0.4,-1 1.1,-0.9c1.9,0.2 3.7,0.4 5.6,0.6c1.5,0.1 2.9,0.4 4.4,0.4c0.3,0 0.7,0.1 0.9,-0.2c0.1,-0.3 0.2,-0.4 0.4,-0.5c0.6,-0.3 1.2,-0.3 1.9,-0.1c1.8,0.4 3.6,1 5.4,1.4c1.1,0.3 1.3,0.2 1.2,-1.1c-0.1,-2.5 -0.3,-4.9 -0.4,-7.4c0,-0.5 0,-1 0.2,-1.5s0.5,-0.8 1,-0.8c3,-0.1 6,-0.8 9,-1.1c0.7,-0.1 1.4,-0.3 2.1,-0.3c0.3,0 0.6,-0.1 0.9,-0.3c0.8,-0.7 1.7,-0.7 2.6,-0.5c3.4,0.7 6.7,1.5 10.1,2.1c1.2,0.3 1.2,0.2 1.3,-1.2c0.3,-3.4 0.4,-6.9 0.5,-10.4c0.1,-1.5 0.1,-2.9 0.2,-4.4s0.4,-1.8 1.7,-1.9c2.9,-0.3 5.8,-0.7 8.7,-0.9c0.4,0 0.7,-0.3 1,-0.7c0.1,-0.2 0.3,-0.3 0.5,-0.4c1.7,-0.6 3.1,-1.8 4.6,-2.7c2.3,-1.5 4.5,-3 6.8,-4.5c0.4,-0.3 0.9,-0.5 1.2,-1.1c0.2,-0.3 0.3,-0.5 0.5,-0.7c0.5,-0.6 1.2,-0.8 1.9,-0.9c3.1,-0.7 6.2,-1.4 9.4,-2c0.9,-0.2 1.5,-0.6 2.1,-1.4c3.2,-3.9 6.2,-7.9 9.4,-11.8c0.9,-1.1 1.8,-1.4 3.2,-1.3c2.9,0.3 5.8,0.5 8.7,0.6c0.3,0 0.5,0 0.8,0.2c0.1,0.4 -0.1,0.5 -0.3,0.6c-1.2,0.7 -2,1.8 -2.8,2.9c-1.1,1.4 -2.2,2.7 -3.3,4c-2.4,2.6 -4.6,5.5 -6.9,8.1c-0.7,0.8 -1.4,1.1 -2.4,0.8l-5.7,-1.5c-0.8,-0.2 -1.6,-0.2 -2.3,0.4c-0.9,0.7 -2,0.7 -3.1,0.9c-2.1,0.5 -4.3,1 -6.4,1.5c0.1,0.6 0.5,0.8 0.7,1.3s0.4,1.1 0,1.5c-0.4,0.5 -0.8,0.2 -1.3,0c-1.1,-0.7 -1.1,-0.7 -1.5,0.7c-0.3,1.1 -0.6,2.2 -1,3.4c-0.2,0.6 -0.4,1.1 -0.8,1.5c-0.5,0.4 -0.6,1 -0.6,1.7c0.2,3.3 0.4,6.6 0.6,9.8c0,0.4 0.1,0.8 0.1,1.2c-0.1,1 -0.7,1.3 -1.4,0.7s-1.2,-1.3 -1.8,-2c-2.6,-3.1 -5.2,-6.3 -7.9,-9.4c-0.2,0.4 -0.1,0.8 -0.1,1.2l0,13.8c0,0.8 0,1.7 -0.7,2.3c-0.1,0.1 -0.2,0.1 -0.3,0.2c-2.4,0.5 -4.9,0.5 -7.4,0.7l-3.3,0.3c-0.9,0 -1.7,0.6 -2.4,1.2c-4.2,3.6 -8.5,7.2 -12.7,10.8c-1.1,1 -2.2,1.4 -3.6,1.1c-2.3,-0.5 -4.7,-0.7 -7,-1.2c-0.3,-0.1 -0.7,-0.2 -1,-0.1c-1.8,0.6 -3.5,-0.2 -5.3,-0.6c-1.3,-0.3 -2.6,-0.6 -3.8,-1.1c-0.6,-0.2 -0.9,0 -1.1,0.6c-0.4,1.2 -0.8,2.5 -1.1,3.7c-0.6,2 -1.3,4 -1.8,6c-0.4,1.4 -1.2,2.1 -2.3,2.5c-2.4,0.7 -4.9,1.5 -7.3,2.2c-1.3,0.4 -2.4,1 -3.4,1.9c-3,2.7 -6,5.3 -9,7.9c-0.4,0.3 -0.8,0.8 -1.4,0.7c-0.5,-1.2 0,-2.4 0.1,-3.5c0.4,-2.4 0.7,-4.6 0.9,-6.9z" />
      <path
         id="path87"
         fill="#FE8BAE"
         d="m33.1,95.6c3.6,-3.1 7.1,-6.1 10.7,-9.2c0.7,-0.6 1.5,-1 2.3,-1.3c2.6,-0.8 5.2,-1.6 7.9,-2.3c1.2,-0.3 1.9,-1 2.2,-2.4c0.9,-3.3 2,-6.6 3,-9.9c0.2,-0.8 0.6,-0.9 1.2,-0.7c2.4,0.9 5,1.3 7.5,2.1c0.5,0.2 0.9,-0.4 1.5,-0.4c1.2,0 2.5,0.3 3.7,0.5c1.9,0.3 3.9,0.6 5.8,1c0.4,0.1 0.8,-0.1 1.2,-0.4c4.5,-3.9 9.1,-7.8 13.6,-11.7c1,-0.8 2,-1.2 3.3,-1.3c3,-0.2 5.9,-0.5 8.9,-0.8l1.2,0c0.1,0.4 -0.1,0.7 -0.4,1c-3.1,3.9 -6.1,7.9 -9.2,11.9c-0.6,0.8 -1.3,1.2 -2.2,1.2c-3.1,-0.1 -6.2,0.2 -9.3,0.3c-1.8,0 -3.6,0.1 -5.3,0.2c-0.6,0 -1.1,0.3 -1.5,0.7c-3.5,3.1 -7,6.2 -10.8,9c-0.5,0.4 -1.1,0.5 -1.6,0.5c-3.2,0.1 -6.3,-0.3 -9.5,-0.2l-0.4,0c-0.5,0 -0.9,-0.6 -1.4,-0.2c-0.4,0.3 -0.4,1 -0.7,1.4c-2.2,3.9 -4.3,7.8 -6.5,11.7c-0.5,0.9 -1.2,1.2 -2.1,1.1c-4.1,-0.4 -8.1,-0.8 -12.2,-1c-0.3,0 -0.7,0 -0.9,-0.4l0,-0.4z" />
      <path
         id="path89"
         fill="#FD83B1"
         d="m33.1,95.8c3.6,0 7.1,0.5 10.7,0.8c1,0.1 2,0.2 3,0.2c0.5,0 0.8,-0.2 1,-0.6c2.3,-4.1 4.7,-8.2 6.9,-12.4c0.6,-1.1 1,-1.6 2,-1c0.1,0.1 0.4,0.1 0.5,0.1c3.2,-0.2 6.4,0.3 9.6,0.2c0.6,0 1.1,-0.1 1.6,-0.4c0.2,0.3 0.2,0.6 0.2,1c-0.4,3.7 -0.5,7.5 -0.7,11.2c0,0.5 -0.1,1.1 -0.6,1.3c-0.5,0.3 -0.8,-0.2 -1.1,-0.5c-0.8,-0.8 -1.5,-1.7 -2.2,-2.6c-2.2,-2.5 -4.1,-5.2 -6.4,-7.6c-0.5,-0.5 -0.8,-1.1 -1.4,-1.6c-0.1,1.4 -0.3,2.7 -0.2,4c0.3,3.7 0.1,7.3 0.1,11c0,1.5 -0.6,1.9 -1.8,1.4c-1.8,-0.7 -3.6,-1.5 -5.4,-2.2c-1.3,-0.5 -1.4,-0.5 -1.7,1c-1,4.9 -1.9,9.8 -2.9,14.7c-0.1,0.5 -0.2,1 -0.4,1.4s-0.4,0.7 -0.8,0.5c-1.2,-0.9 -2.6,-0.6 -4,-0.8c-2.3,-0.4 -4.7,-0.6 -7,-0.8c-0.3,0 -0.7,-0.1 -1,0c-0.8,0.4 -1.3,-0.2 -1.6,-0.8c-2.1,-3.7 -4.2,-7.5 -6.3,-11.3c-0.3,-0.5 -0.5,-1 -1,-1.1c0.6,-1.1 1.7,-1.1 2.6,-1.5c2.6,-1.2 5.5,-2.2 8.3,-3.6z" />
      <path
         id="path91"
         fill="#FE7FAC"
         d="m42.9,115.8c0.5,-0.1 0.6,-0.5 0.7,-0.9l2.4,-12.6c0.3,-1.3 0.5,-2.6 0.8,-3.9c0.2,-0.8 0.5,-1.1 1.2,-0.8c2.1,0.9 4.1,1.8 6.2,2.6c1.1,0.4 1.3,0.2 1.3,-1c0,-3.2 0.1,-6.5 0,-9.7c-0.1,-1.8 0,-3.6 0.1,-5.5c0,-0.2 -0.1,-0.5 0.1,-0.7c0.3,-0.2 0.4,0.2 0.6,0.4c1.4,2.1 3.2,3.8 4.7,5.7c1.8,2.2 3.5,4.5 5.5,6.4c0.2,0.1 0.3,0.4 0.5,0.3s0.4,-0.4 0.3,-0.7c-0.1,-1 0.2,-2 0.2,-3c0.1,-3 0.3,-5.9 0.6,-8.9c0,-0.3 0.1,-0.5 0.2,-0.8c2.6,-2.1 5.1,-4.2 7.7,-6.4c1.1,-0.9 2.2,-1.7 3.1,-2.8c0.4,-0.5 0.8,-0.6 1.4,-0.6c3.2,0.1 6.3,-0.2 9.5,-0.3c1.9,0 3.9,-0.1 5.8,-0.1c0.8,0 1.2,-0.7 1.6,-1.3c1.5,-2 3,-4 4.6,-6c1.7,-2.2 3.3,-4.3 5,-6.4c2.2,-1.1 4.5,-2.1 6.8,-2.9c4.2,-1.5 7.8,-4.2 11.5,-6.8c2.6,-1.9 5.4,-3.7 8,-5.6c1,-0.7 2.1,-1.1 3.1,-1.6c2.5,-1.1 4.8,-2.6 7.2,-3.9c4,-2.2 8.1,-4.1 12.1,-6.1c0.4,-0.2 0.8,-0.5 1.3,-0.5c1.3,-0.2 2,-1.1 2.7,-2.3c2.5,-4.8 5.1,-9.6 7.7,-14.4c0.8,-1.4 1.2,-1.6 2.6,-1.3c2.2,0.6 4.4,1.1 6.6,1.7c0.7,0.2 1.3,0.1 2,0.3c3.3,3 7,5.4 10.4,8.3c0.4,0.3 0.9,0.6 1.3,0.9c0.3,0.2 0.6,0.4 0.6,0.8c-0.1,0.4 -0.4,0.5 -0.6,0.6c-1.3,0.5 -2.6,0.3 -3.9,0.5c-1.9,0.3 -3.8,0.2 -5.7,0.5c-0.3,0 -0.5,0.1 -0.8,0.2c-3.2,1.6 -6.5,3 -9.8,4.4c-0.4,0.2 -0.8,0.5 -1.2,0.8c-5.6,5.2 -11.3,10.1 -16.6,15.7c-2.6,2.7 -5.2,5.3 -7.8,7.9c-0.6,0.6 -1.3,1.1 -2.2,1.2c-3.1,0.5 -6.2,1 -9.4,1.4c-1.5,0.2 -2.8,0.8 -4,1.9c-3,2.7 -6.1,5.4 -9.2,8.2c-0.3,0.3 -0.6,0.6 -1,0.9c-3.2,0.6 -6.4,1.1 -9.5,2c-3.4,0.9 -6.8,0.8 -10.3,1.3c-0.3,0 -0.7,0.1 -1,0.1c-0.6,0.1 -0.8,0.4 -0.9,1.1c-0.2,2.9 -0.5,5.8 -0.7,8.7c0,0.4 -0.1,0.8 -0.1,1.2c-0.2,1.1 -0.5,1.4 -1.4,1.5c-2.5,0.3 -5.1,0.6 -7.6,0.8c-2,0.2 -4.1,0.4 -6.1,0.6c-0.4,0 -0.8,0.3 -1.2,0.6c-3.2,2.6 -6.5,5.2 -9.7,7.8c-0.9,0.8 -1.9,1.5 -2.9,2.1c-0.8,0.5 -1.5,1.1 -2.1,2c-2.2,3.2 -4.5,6.4 -6.7,9.7c-0.2,0.3 -0.4,0.6 -0.6,0.8c-0.3,0.4 -0.6,1.1 -1.2,0.9c-0.5,-0.2 -0.5,-1 -0.5,-1.6c-0.2,-2 -0.5,-4 -0.7,-6c0,-0.3 0,-0.7 -0.3,-0.8s-0.5,0.2 -0.6,0.5c-2,2.5 -3.9,5 -5.9,7.5c-1.6,2 -3,4.2 -4.9,5.8c-0.1,0.1 -0.2,0.1 -0.2,0.2c-0.3,0.1 -0.5,0.1 -0.7,-0.2l0,-0.4z" />
      <path
         id="path93"
         fill="#ED76A7"
         d="m42.9,116l0.7,0c0.7,-0.5 1.4,-0.8 2.1,-1.1c3.3,-0.9 6.5,-1.9 9.8,-2.8c0.4,-0.1 0.8,-0.2 1.2,-0.2c2.2,0.1 4.4,-0.3 6.6,-0.2c2.3,0.1 4.5,-0.3 6.8,-0.2c0.7,0.4 0.1,0.8 -0.1,1.1c-1,1.2 -2,2.5 -3,3.7c-2.4,2.9 -4.7,5.8 -7.1,8.7c-0.3,0.3 -0.5,0.7 -0.9,0.8c-1.7,0.4 -3.4,0.7 -5.1,1c-2.7,0.6 -5.3,1 -8,1.6c-0.9,0.2 -1.7,0.2 -2.6,0.2c-3.4,-0.3 -6.7,-0.5 -10.1,-0.8c-0.5,0 -0.9,-0.1 -1.2,-0.6c-3,-0.7 -6,-1.3 -8.9,-2.3c2.1,-2.7 4.2,-5.4 6.1,-8.3c1.1,-1.7 2.3,-1.9 4,-1.6c2.8,0.4 5.6,0.6 8.3,0.9c0.4,-0.1 0.9,0 1.4,0.1z" />
      <path
         id="path95"
         fill="#FEA0B6"
         d="m107.6,39.4c-0.1,0.1 -0.2,0.1 -0.4,0.2c-0.7,0.8 -1.7,0.6 -2.6,0.7c-2.6,0.3 -5.3,0.6 -7.9,0.9c-0.3,0 -0.6,0.2 -0.9,0.5c-3,3.9 -6.4,7.3 -9.7,10.9c-1,1.1 -2,2.3 -3,3.4c-0.9,1 -2.1,1.5 -3.4,1.7c-2.1,0.4 -4.2,0.6 -6.4,0.9c-1.5,0.2 -3,0.5 -4.5,0.6c-0.5,0 -0.9,0.2 -1.1,0.6c-0.3,0.7 -0.9,1.3 -1.4,1.8c-1.9,1.9 -3.6,4 -5.4,6c-0.5,0.5 -1,1 -1.6,1.3c-0.1,0.1 -0.2,0.1 -0.4,0.2l-6,-0.6c-1.7,-0.2 -3.4,-0.4 -5.1,-0.6c-1,-0.1 -2,0.3 -3,0.4c-1.4,0.2 -2.8,0.1 -4.2,0.3c-1.6,0.1 -3.1,0.3 -4.7,0.3c-1,0 -1.2,0.3 -1.3,1.5c-0.2,3.9 -0.5,7.7 -0.7,11.5l0,1.7c0,0.3 0,0.6 -0.3,0.8s-0.6,0 -0.8,-0.3c-0.7,-1 -1.4,-2 -2.1,-2.9c-2.4,-3.3 -4.7,-6.7 -7.1,-10c-0.5,-0.7 -0.6,0 -0.7,0.4c-0.6,2.4 -1.2,4.8 -1.8,7.3c-0.4,1.8 -0.9,3.7 -1.3,5.5c-0.1,0.3 -0.2,0.7 -0.5,0.8c0.5,-2.9 1.4,-5.8 2.1,-8.7c0.4,-1.8 0.9,-3.5 1.3,-5.3c0.1,-0.6 0.3,-1.1 0.8,-1.4c0.2,-0.2 0.4,-0.3 0.7,-0.3c1.3,0.1 2.6,-0.2 3.9,-0.2c2,-0.1 4,-0.3 5.9,-0.4c0.1,0 0.3,0 0.4,-0.1c1.8,-1.3 3.9,-0.9 5.9,-1.1c2.1,-0.2 4.2,-0.3 6.3,-0.4c0.7,-0.1 1.3,-0.4 1.9,-0.9c3.5,-3.5 6.9,-7.2 10.4,-10.7c1.2,-1.2 1.5,-1.2 2.9,-0.4c1.8,1 3.5,2.1 5.3,2.9c0.4,0.2 0.8,0.3 1.3,0.2c3.9,-0.7 7.8,-1.2 11.7,-1.7c1.1,-0.2 1.3,-0.3 1.4,-1.7c0,-1.9 0.2,-3.8 0.2,-5.7c0,-2.4 0.2,-4.8 0.2,-7.2c0,-1.3 0.3,-1.7 1.5,-1.7c2.3,0.1 4.5,0.3 6.8,0.5c1.3,0.1 2.6,0.1 3.9,0.3c0.8,0.1 1.5,-0.3 2.1,-1c2.4,-2.9 4.7,-5.8 7.2,-8.5c1.6,-1.7 3.1,-3.4 4.6,-5.3c2.7,-3.3 5.4,-6.6 8,-9.9c0.7,-0.9 1.4,-1.9 2.5,-2.4c2.7,-0.6 5.5,-0.8 8.2,-1.2c0.7,-0.1 1.5,-0.4 2.2,-0.2c0.5,0.3 0.2,0.6 0,0.8c-0.7,1.1 -1.2,2.3 -1.8,3.5c-1.8,4.2 -3.8,8.3 -5.6,12.5c-0.2,0.5 -0.6,0.8 -0.8,1.3c-0.1,0.2 -0.2,0.4 -0.4,0.6c-2.8,2 -5.6,3.8 -8.4,5.6c-1.4,0.6 -2.8,1.7 -4.3,2.4z" />
      <path
         id="path97"
         fill="#DE74A7"
         d="m31.8,127c1,0.4 2,0.2 3,0.4c2.3,0.3 4.6,0.2 6.8,0.5c3.9,0.6 7.6,-0.8 11.3,-1.4c2.1,-0.3 4.1,-0.8 6.1,-1.2c0.1,0.1 0.1,0.2 0,0.3c-0.2,0.5 -0.6,0.7 -1,0.8c-4,0.8 -7.9,1.7 -11.9,2.3c-0.4,0.1 -0.7,0.1 -1,0.4c-2.6,2.7 -5.2,5.4 -7.8,8.1c-1.3,1.4 -2.7,2.7 -4,4.2c-0.4,0.4 -0.9,0.7 -1.5,0.7l-0.4,0c-3,-0.6 -6,-1.2 -9,-1.9c-0.3,-0.1 -0.6,-0.1 -1,-0.2c0.8,-1.4 1.5,-2.7 2.6,-3.9c1,-1.1 2,-2.2 2.8,-3.5c0.1,-0.1 0.1,-0.3 0.2,-0.3c1.8,-1.6 3.1,-3.7 4.8,-5.3z" />
      <path
         id="path99"
         fill="#CE629D"
         d="m252.4,41.5c-0.1,0.8 -0.7,0.9 -1.2,1c-2.1,0.6 -4.2,1.1 -6.2,1.7c-0.4,0.1 -0.9,0.1 -1.1,0.6c-0.5,0.6 -1.1,0.3 -1.7,0.1c-2.6,-0.9 -5.2,-1.9 -7.8,-2.9c-1.5,-0.5 -3,-1.1 -4.5,-1.6c-0.3,-0.1 -0.5,-0.1 -0.7,-0.4c-0.3,-0.5 -0.2,-1 -0.1,-1.5c0.7,-3.2 1.3,-6.5 2.1,-9.7c0,-0.1 0.1,-0.2 0.1,-0.3c2.5,-1.9 4.2,-4.7 6.3,-7.1c1,-1.2 2.1,-2.4 3.1,-3.6c0.2,-0.2 0.4,-0.5 0.8,-0.4c0.1,1.5 0.7,2.9 1,4.4c0.5,2.1 1.1,4.1 1.6,6.2c0.1,0.4 0.2,0.7 0.5,1c2,2.3 3.3,5.1 4.9,7.6c0.9,1.7 1.7,3.5 2.9,4.9z" />
      <path
         id="path101"
         fill="#D174A9"
         d="m241.3,17.5c-1.3,1.4 -2.6,2.8 -3.7,4.3c-1.7,2.1 -3.4,4.1 -5.2,6.2c-0.3,0.3 -0.6,0.5 -1.1,0.5c-0.3,-0.3 -0.3,-0.7 -0.4,-1c-0.3,-3 -0.4,-5.9 -0.7,-8.9c-0.3,-2.9 0.2,-5.6 0.7,-8.4c0.4,-2.1 0.7,-4.2 1,-6.3c0.1,-0.8 0.2,-1.5 0.1,-2.4c-0.1,-0.4 -0.1,-0.9 0.2,-1.3l15.4,0c-1.2,0.3 -2.3,0.6 -3.5,0.8c-1.9,0.3 -1.9,0.9 -2.1,2.7c-0.2,3.2 -0.2,6.5 -0.4,9.7c-0.1,1.3 0,2.6 -0.3,3.9l0,0.2z" />
      <path
         id="path103"
         fill="#DD649E"
         d="m46,128.5l9,-1.8c0.9,-0.2 1.7,-0.4 2.6,-0.5c0.6,-0.1 1,-0.3 1.5,-0.7c0.4,-0.4 0.9,-0.4 1.4,-0.3c3.4,0.3 6.7,0.9 10.1,1c1.1,0 2.1,0.4 3.1,0.6c2.3,0.6 4.6,1.2 6.9,1.9c0.2,0 0.4,0.1 0.5,0.3c0.2,0.5 -0.1,0.9 -0.3,1.2c-0.6,1.1 -1.4,1.9 -2.1,2.8c-2.2,2.7 -4.4,5.4 -6.6,8.2c-0.5,0.6 -1.1,1.1 -1.7,1.4l-0.7,0c-1.6,-0.1 -3.1,0.2 -4.7,0.3l-6.3,0.6c-0.7,0.1 -1.3,-0.2 -1.8,-0.8c-1.3,-1.8 -2.8,-3.5 -4.2,-5.3c-1.2,-1.6 -2.5,-3.2 -3.8,-4.8c-0.9,-1.1 -1.8,-2.3 -2.6,-3.4c-0.2,0 -0.4,-0.3 -0.3,-0.7z" />
      <path
         id="path105"
         fill="#D6589B"
         d="m70.3,142.8c0.2,-0.7 0.8,-0.7 1.1,-1.2c1.8,-2.2 3.6,-4.4 5.3,-6.7c0.8,-1.1 1.7,-2 2.5,-3.1c0.6,-0.8 1.3,-1.7 1.8,-2.6c0.3,-0.4 0.7,-0.4 1.1,-0.3c3.1,0.4 6.3,0.5 9.4,0.9c0.5,0.1 1,0.1 1.2,0.7c0.2,1.9 0.1,3.9 0.3,5.8c0.1,1.7 -0.1,3.5 0.2,5.2c0.1,0.5 0,0.9 -0.3,1.3c-4.2,3.2 -8.2,6.9 -12.4,10.2c-0.7,-1.1 -0.4,-2.4 -0.5,-3.7c-0.1,-1.6 -0.1,-3.2 -0.2,-4.7c0,-0.6 -0.2,-1.1 -0.8,-1.2l-8.7,-0.6z" />
      <path
         id="path107"
         fill="#D56BA1"
         d="m46,128.5c1.6,2 3.1,4.1 4.7,6.1c1.3,1.7 2.6,3.5 4,5.1c0.9,1 1.6,2.2 2.5,3.2c0.6,0.6 1.3,0.8 2,0.7c1.6,-0.2 3.2,-0.4 4.7,-0.6s3.1,-0.3 4.6,-0.4c0.3,0 0.7,-0.1 1,0.2c-2.1,0.2 -4.1,0.3 -6.2,0.6c-2,0.3 -4,0.2 -6,0.8c-1,0.3 -1.7,1.2 -2.5,1.9c-2.8,2.6 -5.5,5.2 -8.2,7.8c-0.4,0.4 -0.5,0.2 -0.6,-0.3l0,-0.8c0,-2.7 0,-5.5 -0.2,-8.2c0,-0.6 -0.3,-0.9 -0.8,-0.9c-1.6,-0.1 -3.2,-0.3 -4.8,-0.4c-2.7,-0.3 -5.3,-0.5 -8,-0.8c-0.2,0 -0.4,-0.1 -0.5,-0.2c2,-1.4 3.5,-3.4 5.2,-5.1c2.4,-2.4 4.8,-4.9 7.2,-7.4c0.8,-0.6 1.1,-1.4 1.9,-1.3z" />
      <path
         id="path109"
         fill="#FEA6B8"
         d="m118.3,14c-1.7,1.7 -3.1,3.7 -4.6,5.6c-0.8,1 -1.6,1.9 -2.4,3c-2,2.6 -4,5.1 -6.2,7.5l-5.1,5.7c-1.2,1.4 -2.4,2.8 -3.5,4.2c-0.8,1 -1.7,1.6 -2.8,1.3c-1.3,-0.3 -2.6,-0.2 -4,-0.3c-2.2,-0.3 -4.4,-0.3 -6.7,-0.5c-0.8,-0.1 -1,0.3 -1,1.1c0,2.7 -0.2,5.4 -0.2,8.1c0,1.7 -0.1,3.4 -0.1,5.1c0,1.6 -0.3,1.8 -1.6,2c-2.7,0.3 -5.3,0.8 -8,1.2l-4.2,0.6c-0.8,0.1 -1.5,-0.5 -2.2,-0.9l-4.8,-2.7c-0.6,-0.4 -1.1,-0.3 -1.6,0.3c-2.9,3 -5.7,5.9 -8.6,8.9c-0.8,0.8 -1.6,1.7 -2.4,2.5c-0.5,0.5 -1,0.7 -1.6,0.8c-3.3,0.2 -6.7,0.5 -10,0.6c-0.4,0 -0.9,0.1 -1.2,0.3c-1.8,1 -3.8,0.8 -5.8,1c-2.1,0.1 -4.2,0.4 -6.3,0.4l0,-0.4c0.9,-0.5 2,-0.2 3,-0.3c1.2,-0.2 2.4,-0.2 3.6,-0.3c1.4,-0.1 2.7,-0.1 4.1,-0.2c0.6,0 1.1,-0.4 1.5,-0.9c1.9,-2.1 3.7,-4.2 5.6,-6.2c1.3,-1.3 2.4,-2.7 3.7,-4c0.7,-0.7 1.5,-1.1 2.4,-1.2c3,-0.4 6,-0.8 9,-1.2c0.7,-0.1 1.5,-0.2 2.2,-0.2c1.1,0 1.9,-0.5 2.5,-1.5c2.1,-3.4 4.5,-6.7 6.5,-10.2c0.2,-0.3 0.5,-0.5 0.8,-0.6c3.3,-0.5 6.7,-1.1 10,-1.7c0.9,-0.2 1.9,-0.3 2.8,-0.5c0.5,-0.1 0.9,-0.3 1.3,-0.7c2.6,-2.8 5.6,-5.2 8.3,-7.8c0.9,-0.9 2,-1.2 3.2,-1.2c3.3,-0.2 6.5,-0.2 9.8,-0.2c0.6,0 1,-0.2 1,-1c0.4,-3.9 0.7,-7.8 1.1,-11.7c0.1,-1.1 0.2,-2.3 0.4,-3.4c0,-0.3 0.2,-0.4 0.4,-0.6c0.9,-0.5 1.9,-0.4 2.8,-0.2c2.4,0.3 4.7,0.4 7.1,0.7c0.6,-0.2 1.2,-0.9 1.8,-0.3z" />
      <path
         id="path111"
         fill="#C80088"
         d="m229.2,97.2c-0.1,0.6 -0.4,0.8 -0.9,0.9c-2.2,0.6 -4.5,1.1 -6.7,1.7c-0.7,0.2 -0.9,0.4 -0.3,1c1.4,1.3 2.8,2.7 4.2,4.1c1.8,1.7 3.5,3.4 5.3,5.1c0.3,0.3 0.7,0.6 0.3,1.1c-1.9,0.2 -3.8,0.4 -5.7,0.7c-1.8,0.2 -3.6,0.6 -5.5,0.8c-0.9,0.1 -1.3,0.5 -1.4,1.4c-0.2,1.9 -0.4,3.8 -0.6,5.6l-0.6,4.8c-0.1,0.5 -0.3,0.7 -0.7,0.6c-2.2,-0.1 -4.5,0.1 -6.7,-0.1c-1.7,-0.2 -3.5,-0.1 -5.2,0c-0.2,0 -0.4,0.1 -0.5,0.2c-2.9,1.9 -6,3.1 -9,4.5c-1.6,0.8 -2.8,2.1 -4,3.3c-2.8,2.9 -5.5,6 -8.3,9c-0.3,0.4 -0.8,0.5 -1,1c-2.1,0.3 -4.1,-0.2 -6.2,-0.4c-1.1,-0.1 -2.1,-0.3 -3.2,-0.2c-3.2,0.2 -6.4,-0.6 -9.5,-1.2c-2.7,-0.5 -5.5,-1 -8.2,-1.6c-0.3,-0.1 -0.7,0 -1,0.2l0,-0.6c-0.1,-0.1 -0.1,-0.2 0,-0.3c0.6,-0.7 1.4,-0.5 2.1,-0.3c4.2,0.7 8.3,1.5 12.5,2.3c1.5,0.3 1.6,0.3 1.5,-1.4c-0.2,-3.3 -0.4,-6.6 -0.7,-9.9c-0.3,-3.1 0.1,-3.7 2.9,-3.2c1.4,0.2 2.8,0.1 4.3,0.3c1.4,0.1 2.8,0.1 4.2,0.3c1.3,0.1 2.4,-0.4 3.4,-1.2c1.8,-1.5 3.5,-2.9 5.3,-4.4c1.6,-1.4 3.3,-2.7 4.9,-4.1s3.5,-2.2 5.2,-3.3s3.5,-2 5.2,-3.2c0.5,-0.3 1,-0.4 1.6,-0.4c3.6,0.5 7.3,1 10.9,1.5c1.3,0.2 1.3,0.2 1.5,-1.3c0.3,-2.6 0.5,-5.3 0.7,-8c0.1,-1 0.1,-2.1 0.6,-3c2.1,-3.6 4.2,-7.1 6.3,-10.7c0.3,-0.5 0.6,-1 0.9,-1.4c0.2,-0.3 0.5,-0.6 0.8,-0.5c0.4,0.1 0.4,0.5 0.5,0.9c0.2,1.8 0.4,3.6 0.5,5.4c0.1,1 0.2,1.9 0.3,2.9c0.2,0.4 0.3,0.8 0,1.1z" />
      <path
         id="path113"
         fill="#F1489C"
         d="m121,127c-4.2,0.2 -8.4,0.4 -12.7,0.7c-0.6,0 -1.3,0.2 -1.9,0.2c-0.7,0.1 -1.5,0.2 -2.2,0.1c-0.4,-0.4 -0.4,-1 -0.3,-1.6c0.3,-4.2 0.6,-8.3 1,-12.5c0,-0.3 0.2,-0.6 0.4,-0.8c2.3,-1.6 4.4,-3.5 6.6,-5.3c2.3,-1.9 4.5,-3.7 6.8,-5.6c0.5,-0.4 0.9,-0.9 1.6,-0.7c0.7,2.3 2.2,4 3.4,5.9c1.4,2.2 2.9,4.3 4.3,6.4c0.6,0.9 0.6,1.2 -0.1,1.7c-1.5,0 -2.9,-0.5 -4.3,-0.8c-1.7,-0.4 -1.8,-0.2 -1.8,1.8c-0.1,3 0,6 -0.1,9c0,0.7 -0.1,1.3 -0.7,1.5z" />
      <path
         id="path115"
         fill="#D94D99"
         d="m104.3,127.8l2.2,0c-0.4,0.4 -0.8,0.1 -1.2,0.2c-0.7,0.1 -1,0.5 -0.9,1.4c0.7,4.8 1.3,9.5 2,14.3c0.1,0.5 -0.1,0.8 -0.3,1.2c-3.7,-0.6 -7.5,-1.1 -11.2,-1.7c-0.7,-0.1 -1.4,-0.3 -2,-0.4c-0.2,-4.1 -0.4,-8.2 -0.4,-12.3c0.3,-0.5 0.7,-0.5 1.1,-0.6c3.3,-0.7 6.5,-1.4 9.8,-2.1c0.3,-0.1 0.6,-0.1 0.9,0z" />
      <path
         id="path117"
         fill="#D93493"
         d="m130.7,143.6c-2.7,0 -5.4,0.4 -8.2,0.6c-1,0.1 -2.1,0.1 -3.1,0.2c-0.9,0.1 -1.8,0.1 -2.7,0.2c0,-0.9 0.2,-1.6 0.4,-2.4c1.3,-4.9 2.7,-9.8 4,-14.6c0.1,-0.2 0.1,-0.4 0.1,-0.6c0.2,-0.2 0.4,-0.4 0.7,-0.3c2.3,0.8 4.5,1.6 6.8,2.3c1.9,0.6 2.1,1 2.1,3.2c0,3.5 -0.1,6.9 0.1,10.4c0,0.2 -0.1,0.4 -0.1,0.6s-0.1,0.3 -0.1,0.4z" />
      <path
         id="path119"
         fill="#EC3A97"
         d="m121.8,126.8c-0.2,0.1 -0.4,0.1 -0.5,0.2l-0.2,0c0.3,-0.4 0.4,-0.9 0.4,-1.4l0,-6.7c0,-1.3 0.1,-2.5 0.2,-3.8c0,-0.8 0.2,-1.1 1,-0.9c1.8,0.4 3.7,0.8 5.5,1.1c0.4,0 0.9,-0.1 1.3,0.3c0.2,1 -0.3,1.7 -0.7,2.3c-1.8,2.7 -3.7,5.3 -5.6,7.9c-0.4,0.6 -0.7,1.3 -1.4,1z" />
      <path
         id="path121"
         fill="#D05599"
         d="m229.2,40c1.3,0 2.5,0.7 3.7,1.1c3.2,1.1 6.4,2.3 9.6,3.5c0.5,0.2 1,0.1 1.4,0.2c0.1,0.7 0.7,0.6 1.1,0.9c2.7,2.1 5.5,4.2 8.3,6.3c0.4,0.3 0.8,0.8 1,1.4c-3,1.2 -6.2,2 -9.3,3.1c-1.3,0.5 -2.8,0.7 -4,1.4c-0.2,0.2 -0.4,0.3 -0.6,0.3c-3.1,0.1 -6.2,0.2 -9.3,-0.2c-3,-0.4 -6,-0.6 -8.9,-0.9c-0.4,0 -0.9,0 -1.2,-0.3c-0.1,-0.1 -0.1,-0.2 -0.2,-0.3c-0.2,-0.6 0.1,-1.1 0.3,-1.6c2.5,-4.7 4.9,-9.4 7.3,-14.1c0.1,-0.4 0.3,-0.8 0.8,-0.8z" />
      <path
         id="path123"
         fill="#E42993"
         d="m121.8,126.8c0.7,-0.2 1,-0.8 1.4,-1.4c1.8,-2.5 3.6,-5 5.3,-7.5c0.4,-0.6 0.6,-1.4 0.9,-2.1c0.2,-0.4 0.7,-0.5 1,-0.6c4.5,-1.3 9,-2.6 13.4,-3.9c0.3,-0.1 0.6,-0.2 1,-0.1c0.1,0 0.2,0.1 0.2,0.2c0.2,1.2 -0.1,2.3 -0.3,3.5c-0.6,4.5 -1.2,8.9 -1.7,13.3c0,0.3 -0.1,0.6 -0.2,0.9c-0.1,0.4 -0.3,0.7 -0.6,0.7c-0.4,0 -0.6,0.3 -0.8,0.6c-2.4,3 -4.8,5.8 -7.2,8.7c-1.1,1.3 -2.2,2.8 -3.4,4c-0.3,-0.6 -0.4,-1.2 -0.4,-1.9l0,-9.8c0,-1.1 -0.3,-1.7 -1.2,-2c-2.1,-0.7 -4.3,-1.5 -6.4,-2.2c-0.3,0.1 -0.7,-0.1 -1,-0.4z" />
      <path
         id="path125"
         fill="#D4168E"
         d="m142.3,129.9c0.1,-0.2 0.2,-0.4 0.4,-0.6c0.2,-0.3 0.6,-0.4 0.9,-0.5l11.4,-3c0.4,-0.1 0.8,-0.2 1.1,0.1c0.2,0.3 0.1,0.7 0,1c-0.5,3.8 -1.2,7.6 -1.7,11.5c0,0.3 -0.1,0.5 -0.3,0.7l0,0.2l-8.7,4.8c-0.4,0.2 -0.8,0.4 -1.3,0.4c-1,-1.2 -0.7,-2.8 -0.9,-4.2c-0.4,-2.6 -0.6,-5.2 -0.9,-7.8c0,-0.9 -0.2,-1.7 0,-2.6z" />
      <path
         id="path127"
         fill="#C83F94"
         d="m240.4,57.9l0.5,0c0.8,0.3 1.6,0.5 2.5,0.2c3.3,-1.1 6.5,-2.2 9.8,-3.3c0.3,-0.1 0.4,0 0.5,0.3c0.3,1 0.2,2 0.3,3c0.3,2.7 0.6,5.3 0.7,8c0.1,1.2 0.7,2 1.1,3c-0.2,0.1 -0.5,0.3 -0.7,0.4c-0.7,0.5 -1.5,0.6 -2.3,0.7c-3.5,0.6 -7,1.3 -10.6,1.9c-0.6,0.1 -1.3,0.3 -1.9,0.1c-2,-0.8 -4,-1.4 -6,-2.2c-0.4,-0.2 -0.9,-0.3 -1.2,-0.7c-0.2,-0.6 0.1,-1 0.4,-1.4c2,-3.2 4.2,-6.2 6.2,-9.4c0.3,-0.3 0.5,-0.4 0.7,-0.6z" />
      <path
         id="path129"
         fill="#CC2690"
         d="m240.4,71.8c0.7,0.3 1.4,0 2,-0.1c4,-0.7 8,-1.4 12.1,-2.2l0.6,0c-1.4,1.7 -2.7,3.5 -4.1,5.2c-2.5,3.2 -5.1,6.5 -7.6,9.7c-0.2,0.3 -0.4,0.7 -0.5,1.1c-1.2,0.6 -2.4,0.6 -3.6,0.6c-2.6,0 -5.2,0.3 -7.9,0.3c-1,0 -1.9,0.4 -2.9,0.1c-0.6,-0.2 -0.4,-0.7 -0.2,-1.1c0.3,-0.6 0.7,-1.3 1.1,-1.8c3.2,-3.5 6.1,-7.3 9.3,-10.8c0.5,-0.5 1,-1 1.7,-1z" />
      <path
         id="path131"
         fill="#D0118E"
         d="m228.3,86.2c3.9,-0.1 7.8,-0.4 11.7,-0.5c1,0 2,-0.1 3.1,-0.2l0,0.2c-4.2,3.6 -8.4,7.2 -12.5,10.7c-0.4,0.3 -0.7,0.8 -1.3,0.7c-0.2,-2.3 -0.4,-4.5 -0.7,-6.8c-0.1,-0.9 -0.2,-1.8 -0.2,-2.8c0,-0.2 0,-0.5 -0.2,-0.6s-0.4,0.1 -0.5,0.4c-1.3,2.1 -2.5,4.2 -3.8,6.3c-1.2,1.9 -2.2,3.9 -3.5,5.8c-0.7,-0.1 -0.7,-0.7 -0.8,-1.2c-0.6,-3 -1.3,-5.9 -1.9,-8.9c-0.3,-1.3 -0.6,-2.6 -0.8,-3.9c-0.1,-0.4 -0.2,-0.8 0,-1.2c0.1,-0.1 0.2,-0.1 0.3,-0.2c1.7,-0.1 3.3,0.5 5,0.7s3.3,0.5 5,0.8c0.3,0.2 0.7,0.2 1.1,0.7z" />
      <path
         id="path133"
         fill="#FE89B2"
         d="m178.6,15.5c-2.3,0.1 -4.5,-0.9 -6.7,-1.4c-0.8,-0.1 -1.5,-0.3 -2.3,-0.6c-0.9,-0.3 -1.4,0.1 -1.8,0.9c-2.7,5.1 -5.5,10.2 -8.1,15.3c-0.5,0.9 -1,1.5 -2,1.8c-2.4,0.7 -4.5,2.1 -6.7,3.1c-2.7,1.3 -5.3,2.7 -8,4c-0.7,0.3 -1.1,1.1 -1.8,1.5c-1.6,0.7 -3.2,1.6 -4.8,2.3c-2.4,1 -4.5,2.7 -6.6,4.2c-3.5,2.4 -6.9,4.9 -10.5,7.2c-1.7,1.2 -3.7,1.7 -5.6,2.5c-1.7,0.8 -3.5,1.5 -5.3,2.2c-0.4,0.2 -0.9,0.3 -1.3,0.3c0.4,-0.6 0.6,-1.3 0.6,-2l0,-14.7c0,-0.4 -0.2,-1.1 0.2,-1.2c0.4,-0.2 0.5,0.5 0.7,0.8c1.9,2.2 3.8,4.5 5.7,6.7c1.2,1.4 2.3,2.8 3.4,4.1c0.3,0.3 0.6,0.8 1,0.6s0.3,-0.7 0.2,-1.1c-0.2,-3.3 -0.5,-6.6 -0.7,-9.9c-0.1,-1.1 -0.3,-2.2 0.9,-2.9c0.3,-0.2 0.4,-0.6 0.5,-1c0.5,-1.6 1,-3.2 1.4,-4.8c0.2,-0.8 0.5,-0.8 0.9,-0.2c0.3,0.3 0.5,0.7 0.9,0.8c0.3,0.1 0.5,0.3 0.7,0s0.2,-0.6 0.1,-0.9c-0.2,-0.6 -0.6,-1 -1,-1.4c-0.4,-0.5 -0.3,-0.7 0.2,-0.8c2.9,-0.6 5.7,-1.3 8.6,-1.9c0.3,-0.1 0.6,-0.1 0.8,-0.4c0.7,-0.8 1.5,-0.8 2.4,-0.5c2.1,0.6 4.3,1.1 6.4,1.7c0.4,0.1 0.7,0 1.1,-0.3c3.3,-3.9 6.7,-7.7 10,-11.7c0.8,-0.9 1.6,-1.9 2.4,-2.9c0.5,-0.6 1.2,-0.8 1.7,-1.3c0,-0.3 0.3,-0.5 0.5,-0.7c2.6,-3 5.4,-5.7 7.9,-8.8c1.7,-2.1 3.6,-3.5 6.2,-3.6c0.1,0 0.2,-0.1 0.3,-0.1l10.5,0c0.3,0.5 0.1,1.1 0,1.6l-2.1,11.4c-0.2,0.7 -0.2,1.6 -0.9,2.1z" />
      <path
         id="path135"
         fill="#FE97B7"
         d="m171,0.3c-0.5,0.6 -1.3,0.6 -1.9,0.8c-1.5,0.3 -2.6,1.2 -3.6,2.3c-0.8,0.9 -1.6,1.9 -2.4,2.8c-2,2.3 -4.1,4.5 -6.1,6.8c-0.2,0.3 -0.5,0.4 -0.8,0.6c-2.4,0.2 -4.8,-0.2 -7.2,-0.4c-1.1,-0.1 -2.2,0 -3.3,-0.2c-0.7,-0.1 -1.2,0.4 -1.6,0.9c-0.8,0.8 -1.4,1.8 -2.1,2.6c-1.7,2.1 -3.4,4.1 -5,6.2c-1,1.3 -2.1,2.5 -3,3.8c-0.3,0.5 -0.7,0.7 -1.2,0.8c-3.4,0.7 -6.8,1.5 -10.2,2.2c-0.7,0.1 -1.3,0.4 -1.8,0.9c0.4,-1.5 1.1,-2.8 1.8,-4.2c1.4,-3 2.8,-6.1 4.1,-9.1c0.5,-1.2 1.1,-2.4 1.6,-3.6c0.2,-0.5 0.6,-0.6 0.8,-1c0.1,-0.6 0.5,-0.9 0.8,-1.2c4.1,-3.3 8.3,-6.6 12.5,-9.8c0.7,-0.6 1.6,-1 2.5,-1.3c8.7,0.1 17.4,0.1 26.1,0.1z" />
      <path
         id="path137"
         fill="#F383B3"
         d="m178.6,15.5c1.1,-4.8 1.9,-9.8 2.7,-14.7c0,-0.2 0.1,-0.3 0.2,-0.5l23.2,0l1.5,0c0.3,0.6 -0.2,0.9 -0.4,1.2c-1.3,1.5 -2.6,2.9 -3.9,4.3c-1.9,2.1 -3.9,4.1 -5.7,6.2c-0.7,0.5 -1.1,1.3 -1.3,2.1c-1.1,3.3 -2,6.7 -3.1,10c-0.2,0.5 -0.2,1.1 -0.9,1.1c-3.7,-2.8 -7.4,-5.7 -11.1,-8.5c-0.5,-0.3 -0.9,-0.8 -1.2,-1.2z" />
      <path
         id="path139"
         fill="#DB75A9"
         d="m232.2,0.3c0.5,3.7 -0.6,7.2 -1.2,10.8c-0.5,3.1 -0.7,6.2 -0.3,9.3c0.3,2.7 0.4,5.4 0.6,8.1l0,0.2c-0.3,0.3 -0.6,0.2 -1,0.1c-4.1,-1.1 -8.3,-2.1 -12.4,-3.2c-0.3,-0.1 -0.5,-0.3 -0.7,-0.5c-0.7,-0.9 -1.3,-1.9 -2.1,-2.7c-2.2,-2.4 -4.2,-5 -6.3,-7.5c-0.3,-0.4 -0.8,-0.8 -0.3,-1.5c0.4,-0.3 0.9,-0.1 1.3,0c2.2,0.5 4.3,1 6.5,1.5c1.2,0.3 1.4,0.2 1.5,-1.2c0.1,-1.9 0.3,-3.9 0.4,-5.8c0.1,-1.2 0.2,-2.3 0.3,-3.5c0.1,-1.7 0.7,-2.3 2.2,-2.3l9.5,0c1.2,0 1.2,0 1.5,-1.3c0.1,-0.2 0.1,-0.4 0.3,-0.5l0.2,0z" />
      <path
         id="path141"
         fill="#E47BAD"
         d="m232.1,0.3c0,2.2 0,2.2 -2,2.2l-9.4,0c-1.5,0 -1.7,0.5 -1.9,2c-0.2,3 -0.3,6.1 -0.6,9.1c-0.3,2.3 0.3,2.3 -2,1.8s-4.7,-1.1 -7,-1.7c-0.3,-0.1 -0.5,-0.1 -0.8,0.1c-0.8,0.3 -1.6,-0.2 -2.4,-0.3c-2.9,-0.3 -5.8,-0.8 -8.7,-1.2c-0.5,-0.1 -1,-0.1 -1.3,-0.6c1.6,-2.1 3.5,-3.9 5.3,-5.8c1.6,-1.7 3.2,-3.4 4.7,-5.1c0.1,-0.1 0.1,-0.3 0.2,-0.5l25.9,0z" />
      <path
         id="path143"
         fill="#FEA5BE"
         d="m144.8,0.3c-1.6,1.1 -3.2,2.2 -4.8,3.4c-3.4,2.7 -6.8,5.4 -10.2,8c-0.3,0.2 -0.6,0.5 -0.8,0.8c-1.6,0.3 -3.2,0.5 -4.8,0.8c-2,0.3 -3.9,0.5 -5.9,0.7c-1.8,0.5 -3.6,-0.1 -5.4,-0.1c-2.2,0 -4.3,-0.4 -6.5,-0.3c0.1,-0.3 0.4,-0.4 0.7,-0.4c1.6,-0.2 3.2,0 4.7,0.3c1.6,0.2 3.2,0.3 4.8,0.3c0.7,0 0.7,-0.6 0.7,-1.1l0,-10c0,-0.8 0.1,-1.6 0.2,-2.4l22.3,0l5,0z" />
      <path
         id="path145"
         fill="#FE97B6"
         d="m59.4,68.7c1,-1.1 2,-2.3 3.1,-3.4c1.8,-2 3.6,-3.9 5.3,-5.9c0.5,-0.5 1,-0.6 1.6,-0.7c3.3,-0.5 6.7,-1.1 10,-1.4c1.8,-0.2 3.1,-1.2 4.3,-2.6c2.2,-2.6 4.5,-5.2 6.9,-7.7c1.8,-1.9 3.5,-3.9 5.2,-5.8c0.7,-0.8 1.8,-0.6 2.7,-0.7c2.9,-0.4 5.9,-0.7 8.8,-1.1c-0.4,0.7 -0.9,1 -1.7,1.1c-2.4,0.2 -4.7,0.5 -7.1,0.8l-1.3,0c-1.2,0 -1.3,0.1 -1.4,1.5c-0.1,1.3 -0.1,2.5 -0.2,3.8c-0.2,3.1 -0.3,6.2 -0.4,9.3c0,0.9 -0.2,1.8 -0.2,2.7c0,0.8 -0.5,0.8 -1,0.7c-2.4,-0.5 -4.8,-1 -7.2,-1.5c-1.3,-0.3 -2.7,-0.6 -4,-0.9c-0.7,-0.1 -1.3,-0.1 -1.9,0.4c-0.6,0.6 -1.4,0.4 -2.1,0.5c-2.7,0.4 -5.4,0.7 -8.2,1.1c-0.6,0.1 -1.2,0.3 -1.9,0.1c-0.6,-0.1 -1,0.7 -0.9,1.8c0.2,2.8 0.3,5.6 0.5,8.5c0,0.9 -0.3,1 -1,0.8c-2.1,-0.6 -4.2,-1 -6.4,-1.6c-0.4,0 -0.9,0.2 -1.5,0.2z" />
      <path
         id="path147"
         fill="#FE97B7"
         d="m107.6,39.4c2.6,-1.7 5.2,-3.4 7.7,-5.2l4.2,-2.7c0.3,-0.2 0.5,-0.4 0.8,-0.4c-0.6,1 -1.6,1.3 -2.5,1.9c-3.1,2.1 -6.2,4.1 -9.2,6.1c-0.3,0.1 -0.6,0.3 -1,0.3z" />
      <path
         id="path149"
         fill="#FB6FA8"
         d="m118.9,69.1c0.8,-1.1 1.8,-1.7 2.7,-2.6c2.6,-2.3 5.3,-4.6 7.9,-7c1,-0.9 2.2,-1.3 3.4,-1.5c3.2,-0.5 6.4,-1 9.7,-1.4c0.7,-0.1 1.2,-0.4 1.7,-0.9c2.4,-2.4 4.7,-4.8 7,-7.2c3.6,-3.7 7.2,-7.4 11.1,-10.8c2.3,-2 4.5,-4.1 6.7,-6.1c0.2,-0.2 0.5,-0.4 0.8,-0.5c3.1,-1.4 6.3,-2.7 9.4,-4.2c1.3,-0.6 2.5,-0.6 3.8,-0.7c2.4,-0.2 4.9,-0.4 7.3,-0.7c0.4,-0.1 0.8,-0.3 1,0.2c0.1,0.5 -0.2,0.9 -0.4,1.3c-3.1,4.9 -6.3,9.8 -9.5,14.7c-0.4,0.6 -0.8,1.3 -1.4,1.5c-1.9,0.2 -3.7,0.1 -5.6,0.1l-3.4,0c-1.1,-0.1 -1.2,0 -1.3,1.3c-0.2,1.8 -0.4,3.6 -0.6,5.5c-0.2,1.7 -0.4,3.4 -0.6,5.2c-0.1,0.5 -0.1,1 -0.6,1.2c-0.5,0.1 -0.8,-0.4 -1,-0.8c-2,-3.5 -3.9,-7.1 -5.9,-10.6c-0.3,-0.6 -0.6,-1.2 -1,-1.8c-0.3,0.1 -0.2,0.4 -0.2,0.5c0.1,2.5 -0.2,5.1 -0.2,7.6c0,1.8 -0.2,3.5 -0.2,5.3c-0.1,1.3 -0.6,1.9 -1.8,1.8c-2.5,-0.2 -5.1,-0.5 -7.6,-0.7c-1.7,-0.2 -3.4,-0.3 -5.2,-0.5c-0.9,-0.1 -1.6,0.2 -2.2,0.9c-2.5,2.8 -4.9,5.8 -7.3,8.7c0,0 0,0.1 -0.1,0.1c-1.4,2 -3,3 -5.4,2.8c-3.2,-0.2 -6.4,-0.1 -9.5,-0.1c-0.5,0 -1,0.1 -1.4,-0.3c-0.1,0 -0.2,-0.1 -0.1,-0.3z" />
      <path
         id="path151"
         fill="#FB74A8"
         d="m118.9,69.1l0,0.2l-0.1,0.1c-1.2,0.7 -2.6,0.7 -3.9,1c-1.7,0.4 -3.4,0.7 -5.1,1.1c-0.7,0.2 -1.2,0.5 -1.5,1.4c-1,3.1 -1.9,6.3 -3,9.4c-0.3,0.9 -0.7,1.3 -1.6,1.4c-2.3,0.3 -4.5,0.6 -6.8,1c-0.3,0 -0.5,0.1 -0.8,0.3c-1.1,1.2 -2.1,2.4 -3.1,3.6c-1.6,1.8 -3.2,3.6 -4.7,5.4c-3.7,4.5 -7.8,8.3 -11.9,12.2c-1.6,1.6 -3.3,3.2 -4.9,4.8c-0.2,0.2 -0.4,0.5 -0.7,0.6c-0.2,0 -0.4,0 -0.5,-0.2c-1.5,0.4 -2.9,0.4 -4.4,0.4c-3.1,0 -6.2,0.1 -9.3,0.3c-1.8,0.1 -3.6,0.9 -5.4,1.5c-2.5,0.7 -5,1.5 -7.5,2.2c1.2,-1.4 2.4,-2.8 3.5,-4.3c2.5,-3.2 5,-6.3 7.5,-9.4c0.1,-0.2 0.3,-0.3 0.5,-0.5c0.4,-0.4 0.7,-0.3 0.7,0.3c0.3,2.3 0.5,4.5 0.7,6.8c0.1,0.6 0,1.4 0.4,1.6s0.6,-0.6 0.8,-0.9c2.1,-2.9 4.2,-5.8 6.2,-8.8c1.2,-1.8 2.6,-3.2 4.3,-4.4c2.6,-1.7 4.9,-3.8 7.4,-5.8c1.5,-1.2 3,-2.6 4.6,-3.7c0.9,-0.6 2,-0.4 3,-0.5c2.4,-0.3 4.8,-0.5 7.3,-0.8c1.5,-0.2 2.9,-0.3 4.4,-0.4c0.7,0 1,-0.3 1.1,-1.1c0.2,-1.9 0.4,-3.8 0.5,-5.6c0.1,-1.6 0.2,-3.2 0.4,-4.8c0,-0.5 0.3,-0.9 0.8,-0.9c1.3,-0.1 2.6,-0.3 3.9,-0.4c2.1,-0.2 4.2,-0.2 6.2,-0.7c3.4,-0.8 6.7,-1.4 10.1,-2.2c0.2,-0.2 0.5,-0.1 0.9,-0.2z" />
      <path
         id="path153"
         fill="#EC76A7"
         d="m191.2,26.1c-0.2,-0.5 -0.6,-0.4 -0.9,-0.4c0.2,-0.1 0.4,-0.3 0.5,-0.4c0.7,-0.7 0.8,-1.8 1.1,-2.8c0.9,-2.9 1.8,-5.8 2.7,-8.8c0.3,-0.9 0.6,-1.6 1.5,-2c3.1,0.4 6.2,0.8 9.3,1.3c1,0.2 2.1,0.1 3,0.8c0,0.4 0.3,0.6 0.5,0.9c2.3,2.8 4.7,5.5 7,8.3c0.5,0.6 1.1,1.2 1.4,2.1c-1.1,0.7 -2.4,1 -3.6,1.5c-2.4,1 -4.8,1.9 -7.2,2.9c-0.6,0.2 -1.1,0.5 -1.6,1c-0.4,0.3 -0.7,0.6 -1.2,0.6c-1.8,-0.4 -3.4,-1.2 -5.1,-1.9c-2.4,-0.9 -4.7,-1.9 -7.1,-2.9c-0.1,0 -0.2,-0.1 -0.3,-0.2z" />
      <path
         id="path155"
         fill="#EA65A0"
         d="m70.3,111.6l0.5,0c0.6,-0.2 1.1,0.1 1.6,0.3c2.1,0.7 4.3,1.4 6.4,2.2c0.7,0.2 1.3,0.3 2,0.1c3.4,-0.7 6.9,-1.4 10.3,-2.1c0.5,-0.1 1,-0.4 1.4,0.2c-0.1,0.8 -0.7,0.8 -1.2,0.9c-2.5,0.6 -5.1,1 -7.6,1.6c-0.9,0.2 -1.8,0.4 -2.7,0.5c-0.7,0.1 -1,0.5 -1,1.3c0.1,2.2 0.3,4.4 0.4,6.6c0.1,1.5 0.3,3 0.3,4.6c0,0.5 0,1 -0.3,1.4c-1.1,0 -2.1,-0.5 -3.2,-0.8c-2.1,-0.5 -4.2,-1.1 -6.3,-1.6c-1.2,-0.3 -2.4,-0.1 -3.6,-0.3c-2.5,-0.4 -5,-0.6 -7.4,-0.8l-1.2,0l0,-0.2c0.9,-1.3 2,-2.4 2.9,-3.6c2.7,-3.3 5.4,-6.5 8.1,-9.8c0.5,-0.3 0.6,-0.4 0.6,-0.5z" />
      <path
         id="path157"
         fill="#DF619D"
         d="m217.9,25.4c1.9,0.4 3.7,0.8 5.5,1.3c2.6,0.7 5.3,1.4 7.9,2.1c-0.5,2.4 -1.1,4.8 -1.5,7.2c-0.3,1.3 -0.7,2.6 -0.7,4c-1.4,2.3 -2.5,4.8 -3.8,7.2l-4.2,8.1c-0.2,0.3 -0.2,0.6 -0.3,1c-0.6,0.4 -0.9,-0.1 -1.2,-0.5c-2.2,-3 -4.4,-6 -6.6,-9c-1.3,-1.8 -2.7,-3.6 -4,-5.5c-0.3,-0.5 -0.8,-0.6 -1.1,-1c-0.1,-0.6 0.3,-0.9 0.6,-1.1c0.5,-0.4 0.9,-0.9 1.3,-1.4c2.2,-3.3 4.4,-6.7 6.6,-10c0.5,-0.8 0.7,-1.8 1.5,-2.4z" />
      <path
         id="path159"
         fill="#EA599E"
         d="m80.7,129.1c0,-3.7 -0.4,-7.3 -0.7,-10.9c-0.1,-0.8 0,-1.6 0,-2.4c0,-0.6 0.3,-0.7 0.8,-0.8c3.7,-0.8 7.5,-1.5 11.2,-2.3c0.3,-0.1 0.6,-0.1 0.8,-0.4c0.1,-0.2 0.2,-0.3 0.4,-0.3c1.5,-0.2 2.9,0.2 4.3,0.4c2.2,0.2 4.4,0.5 6.6,0.8c0.5,0.1 0.9,0.1 1.2,0.6c-0.1,3.2 -0.5,6.3 -0.7,9.4c-0.1,1.6 -0.3,3.1 -0.2,4.7c-1.4,0.7 -3,0.8 -4.5,1.1c-2.4,0.6 -4.9,1.1 -7.3,1.6c-0.9,-0.5 -1.9,-0.4 -2.9,-0.5c-2.5,-0.3 -5,-0.3 -7.5,-0.7c-0.4,-0.1 -0.7,0 -1.1,0c-0.2,-0.2 -0.3,-0.3 -0.4,-0.3z" />
      <path
         id="path161"
         fill="#D6008D"
         d="m216.8,84.3c1,4.7 2,9.4 3.1,14.2c0.1,0.4 0.1,0.8 0.4,1c-0.6,1.6 -0.5,3.2 -0.7,4.9c-0.2,2.4 -0.4,4.7 -0.6,7.1c-0.1,0.8 -0.5,0.8 -1,0.7c-1.3,-0.2 -2.5,-0.3 -3.8,-0.5c-2.3,-0.3 -4.6,-0.6 -6.9,-0.9c-0.3,0 -0.7,-0.1 -1,-0.1c-0.6,-0.1 -1,0 -1.5,0.4c-0.8,0.7 -1.8,1.2 -2.7,1.7c-2.1,1.1 -4.2,2.4 -6.3,3.7c-2,1.3 -3.8,3.1 -5.8,4.7c-2.3,1.9 -4.5,3.9 -6.8,5.6c-1.1,0.8 -2.3,0.6 -3.3,0.4c-1.5,-0.2 -3,-0.1 -4.4,-0.3c-1.6,-0.2 -3.3,-0.3 -5,-0.3c-0.5,0 -0.8,0.1 -0.8,0.8c0,2.6 0.3,5.2 0.5,7.8c0.1,1.9 0.3,3.8 0.4,5.7c0,0.6 -0.4,0.7 -0.8,0.6c-2.2,-0.4 -4.5,-0.9 -6.7,-1.3c-2.5,-0.5 -4.9,-0.9 -7.4,-1.4c-0.5,-0.1 -1.1,0 -1.6,0.2c0.2,-3.8 1.1,-7.5 1.5,-11.2c0.1,-0.6 0.1,-1.3 0.4,-1.9c-0.2,-0.4 -0.1,-0.7 0,-1.1c0.7,-2.9 1.4,-5.8 2.1,-8.6c0.1,-0.4 0.2,-0.7 0.4,-1c0.6,-0.4 1,0 1.4,0.4c2.2,2.2 4.3,4.5 6.4,6.7l2.1,2.1c0.2,0.2 0.3,0.5 0.6,0.3c0.2,-0.2 0.2,-0.5 0.2,-0.8c-0.2,-1.4 0,-2.9 -0.2,-4.4c-0.2,-1.7 -0.1,-3.5 -0.2,-5.2c-0.1,-0.9 0.3,-1.3 1.2,-1.3c1.5,0 3,0.3 4.5,0.5c2.1,0.3 4.3,0.5 6.4,0.9c1.2,0.2 1.9,-0.3 2.6,-1.4c3.9,-5.8 7.7,-11.6 11.6,-17.3c0.4,-0.5 0.9,-0.4 1.4,-0.2c2.6,1.3 5.2,2.2 7.6,3.8c0.6,0.4 0.9,0.3 1.4,-0.3c3.2,-4.6 6.5,-9.2 9.7,-13.8c0.3,-0.4 0.6,-0.9 1.1,-1.1c0.3,0.2 0.4,0.2 0.5,0.2z" />
      <path
         id="path163"
         fill="#FC56A3"
         d="m105.2,113.7c-2.9,-0.5 -5.7,-0.7 -8.6,-1.1c-1.2,-0.1 -2.4,-0.4 -3.6,-0.4c-0.2,-0.3 -0.1,-0.6 -0.1,-0.9c0.4,-2.7 0.7,-5.5 1,-8.2c0.2,-1.4 0.5,-1.8 1.8,-2.1c3.9,-0.8 7.9,-1.7 11.8,-2.4c1,-0.2 1.6,-0.7 2.2,-1.6c2.4,-3.6 4.8,-7.3 7.2,-10.9c0.5,-0.8 1.1,-1.7 2,-2.1c0.6,-0.1 1.3,0 1.9,0.2c2.7,0.9 5.5,1.7 8.2,2.6c1.3,0.4 1.4,0.3 1.6,-1.2c0.5,-4.4 1,-8.7 1.5,-13.1c0.4,-3.2 0.4,-3.3 3.2,-3.1c2.6,0.2 5.2,0.2 7.7,0.6c0.8,0.1 1.7,0.1 2.5,-0.2l0.3,0c1.8,-0.3 3.5,-0.5 5.3,-0.7c1.5,-0.2 3.1,-0.4 4.6,-0.6c1,-0.1 1.8,-0.5 2.6,-1.3c2.6,-3.2 5.5,-6 8.2,-9.2c0.7,-0.8 1.4,-1.1 2.3,-1.1c2.5,0 5,-0.2 7.5,-0.2c1,0 2,-0.3 3,-0.3c0.4,0.4 0,0.7 -0.1,0.9c-1.9,2.7 -3.8,5.3 -5.7,7.9c-1.3,1.8 -2.6,3.7 -4,5.5c-0.3,0.4 -0.6,0.9 -1.1,1.2l-0.3,0c-3,-0.8 -5.9,-1.7 -8.8,-2.5c-0.8,-0.2 -1.4,-0.2 -2.2,0c-1.8,0.5 -3.8,0.6 -5.7,0.8c-1.5,0.2 -3.1,0.4 -4.6,0.5c-0.6,0 -0.8,0.3 -0.8,1c0.1,2.2 0.2,4.4 0.3,6.5c0.1,2.6 0.3,5.1 0.3,7.7c0,1.3 -0.3,1.6 -1.4,1.5s-2.2,0.1 -3.3,0.1l-9,0c-1.4,0 -2.4,0.6 -3.3,1.6c-2.9,3.4 -5.6,7 -8.5,10.5c-0.1,0.1 -0.2,0.2 -0.2,0.3c-0.9,2 -2.4,2.2 -4.1,1.7c-1.9,-0.6 -3.8,-1.1 -5.6,-1.6c-1.1,-0.3 -1.2,-0.2 -1.5,1c-0.8,3 -1.6,6 -2.4,9.1c-0.3,1.2 -0.8,2.3 -1.6,3.1l-0.5,0.5z" />
      <path
         id="path165"
         fill="#FE4EA1"
         d="m105.6,113.3c1.9,-4.1 2.6,-8.6 3.8,-12.9c0.2,-0.8 0.6,-0.9 1.2,-0.7c2.3,0.7 4.6,1.3 7,1.9c1.4,0.4 1.9,0.1 2.7,-1.3c0.8,-1.3 1.8,-2.3 2.7,-3.4c2.1,-2.7 4.2,-5.4 6.5,-8c0.8,-0.9 1.8,-1.6 3.1,-1.5c3.2,0.1 6.4,0 9.6,0c1.2,0 2.3,-0.4 3.5,0c0.5,0.1 0.6,-0.3 0.7,-0.8c0.1,-1.7 -0.1,-3.3 -0.2,-5c-0.1,-3.2 -0.2,-6.5 -0.4,-9.7c0,-0.8 -0.1,-1.3 1,-1.2c1.7,0.1 3.5,-0.3 5.2,-0.6c1.4,-0.2 2.9,-0.4 4.3,-0.6l0.4,0c1.4,-1 2.7,-0.1 4.1,0.2c2.3,0.6 4.5,1.3 6.8,1.9c0.3,0.1 0.5,0.1 0.7,0.4c0.2,0.6 -0.2,0.9 -0.5,1.2c-3.1,3 -6.1,5.9 -9.3,8.8c-1,0.9 -2.2,1.4 -3.3,2c-2.7,1.5 -5.5,2.7 -8.2,4.2c-0.8,0.5 -0.9,1.6 -1.1,2.4c-0.5,1.5 -0.8,3 -1.3,4.4c-0.4,1.2 -0.6,1.4 -1.7,1.4c-2.1,-0.1 -4.3,0.2 -6.4,0.3c-1.2,0 -2.4,0.1 -3.6,0.2c-0.2,0 -0.5,0 -0.7,0.2c-0.7,0.7 -1.6,1 -2.4,1.4c-2.7,1 -5.4,2.2 -8.2,3.2c-0.4,0.2 -0.8,0.4 -1.3,0.2c-1.7,0.6 -2.9,2 -4.2,3.1c-3.2,2.6 -6.4,5.3 -9.6,8c-0.3,-0.1 -0.6,0.1 -0.9,0.3z" />
      <path
         id="path167"
         fill="#F8399B"
         d="m120.3,101.6c3.4,-1.3 6.7,-2.6 10.1,-4c0.3,-0.1 0.6,-0.1 0.8,-0.3c0.9,-1.1 2.1,-0.9 3.2,-0.9c2.9,-0.1 5.9,-0.4 8.8,-0.4c0.6,0 0.9,-0.3 1.1,-1l1.8,-6.3c0.1,-0.5 0.3,-1 0.9,-1.1c0.1,0.6 -0.3,1.1 -0.4,1.6c-0.5,1.8 -1,3.5 -1.5,5.2c-0.4,1.7 -0.8,2 -2.3,2c-3,0.1 -6,0.3 -9,0.4c-0.3,0 -0.6,-0.1 -0.7,0.3c-0.1,0.3 0.2,0.5 0.4,0.7c3.7,3.8 7,7.9 10.5,11.9c0.3,0.4 0.7,0.7 0.9,1.2c0,0.1 0,0.2 -0.1,0.3c-3.7,1.1 -7.4,2.2 -11.1,3.2c-1.4,0.4 -2.8,0.9 -4.3,1.1c-0.4,-0.1 -0.9,-0.1 -1.3,-0.4c0.4,-0.4 0,-0.8 -0.2,-1.1c-2.3,-3.5 -4.7,-7.1 -7,-10.6c-0.3,-0.3 -0.9,-0.9 -0.6,-1.8z" />
      <path
         id="path169"
         fill="#E5579C"
         d="m207.9,40.2c0.6,-0.1 1,0.4 1.4,0.9c2.2,3 4.3,5.9 6.5,8.9c1.3,1.9 2.7,3.7 4,5.6c0.3,0.4 0.5,0.8 1,0.7l0,0.2c-0.1,0.6 -0.5,0.8 -0.9,0.9c-0.3,0.1 -0.5,0.1 -0.8,0.1c-4.6,-0.1 -9.1,0.4 -13.7,0.2c-0.6,0 -1.2,0 -1.8,-0.3c-1.2,-0.5 -2.5,-0.6 -3.8,-0.8c-2.4,-0.4 -4.9,-0.8 -7.3,-1.2c-0.4,-0.1 -0.7,-0.1 -1,-0.3c-0.3,-0.3 -0.1,-0.6 0,-0.9c1.1,-3.3 2,-6.7 2.9,-10c0.1,-0.5 0.3,-1 0.6,-1.4c0.3,-0.3 0.6,-0.3 0.9,-0.4c3.3,-0.5 6.7,-1.3 10,-1.8c0.7,-0.1 1.3,-0.5 2,-0.4z" />
      <path
         id="path171"
         fill="#D84496"
         d="m220.1,57.1c0.2,-0.2 0.5,-0.4 0.7,-0.6c0.8,0.4 1.7,0.3 2.6,0.4c5.7,0.5 11.3,1.4 17,1.1c-2,3.5 -4.3,6.7 -6.5,10c-0.2,0.4 -0.5,0.7 -0.6,1.2c-0.2,0.4 -0.6,0.5 -0.9,0.5c-2.7,-0.2 -5.3,-0.3 -8,-0.6c-2.2,-0.2 -4.3,-0.2 -6.5,-0.5c-0.2,0 -0.5,0 -0.7,-0.1c-0.1,0 -0.2,-0.1 -0.3,-0.2c-0.4,-0.6 -0.3,-1.3 -0.1,-1.9c0.8,-2.8 1.7,-5.5 2.5,-8.3c0.2,-0.5 0.4,-0.8 0.8,-1z" />
      <path
         id="path173"
         fill="#F2229B"
         d="m144.8,111.4l0,-0.2c-0.1,-0.7 0.3,-1.2 0.7,-1.7c2.5,-3.5 5,-7 7.6,-10.5c0.6,-0.9 1.5,-1.4 2.5,-1.4c3.4,-0.2 6.8,-0.6 10.1,-0.8c0.7,0 0.9,-0.5 1,-1.1c0.7,-2.3 1.3,-4.7 2,-7c0.1,-0.5 0.2,-1.1 0.7,-1.4c0.4,-0.2 0.8,0.1 1,0.4c1.7,2.1 3.4,4.1 5,6.2c1,1.3 2.2,2.6 3.2,4c0.3,0.4 0.8,0.8 0.4,1.5c-0.4,0.3 -0.9,0.1 -1.3,0c-3.1,-0.6 -6.2,-1.1 -9.3,-1.7c-1.4,-0.3 -1.5,-0.2 -2.2,1.3c-2.2,4.8 -4.3,9.7 -6.4,14.5c-0.3,0.6 -0.4,1.2 -1.1,1.5c-0.6,0.1 -1.1,-0.1 -1.6,-0.2c-3.7,-0.9 -7.3,-1.7 -11,-2.6c-0.4,-0.1 -0.9,-0.1 -1.2,-0.6c0.1,-0.2 0,-0.2 -0.1,-0.2z" />
      <path
         id="path175"
         fill="#E31B93"
         d="m145,111.4c4.2,1 8.5,2 12.7,3c0.4,0.1 0.8,0.2 1.1,0.3c0.2,0.2 0.1,0.4 0,0.6c-0.8,2.6 -1.3,5.2 -2,7.8c-0.2,0.9 -0.5,1.8 -0.7,2.8c-3.3,0.9 -6.6,1.7 -9.9,2.6c-1.2,0.3 -2.3,0.7 -3.5,0.8c0.3,-2.1 0.5,-4.3 0.8,-6.4c0.5,-3.6 0.9,-7.2 1.4,-10.8c0,-0.3 0.1,-0.5 0.1,-0.7z" />
      <path
         id="path177"
         fill="#D82E92"
         d="m217,68.1c2.5,0.2 5,0.3 7.6,0.6c1,0.1 2,0.2 3.1,0.2c1.6,0.1 3.2,0.2 4.9,0.4c0.3,0 0.6,-0.1 0.9,-0.2c1.9,1 4,1.5 6,2.3c0.4,0.1 0.7,0.3 1.1,0.4c-0.7,0.3 -1.3,0.9 -1.9,1.6c-3,3.5 -6,7 -9,10.5c-0.6,0.6 -0.9,1.4 -1.3,2.2c-2.7,-0.4 -5.4,-0.9 -8.2,-1.3c-1,-0.2 -2.1,-0.4 -3.1,-0.5c-0.4,-0.5 -0.4,-1.1 -0.4,-1.7c0,-4.3 0,-8.6 0.2,-12.9c-0.1,-0.5 -0.3,-1.1 0.1,-1.6z" />
      <path
         id="path179"
         fill="#E32E93"
         d="m217,68.1c0.3,2 0.1,3.9 0,5.9c-0.1,3.5 0,6.9 0,10.4l-0.2,0l-0.1,0l-0.1,0c-0.4,0.3 -0.8,0.4 -1.3,0.3c-2,-0.4 -4.1,-0.7 -6.1,-1.1c-0.6,-0.1 -1.1,-0.1 -1.6,0.1c-3.7,1.2 -7.4,2.3 -11,3.4c-0.3,0.1 -0.7,0.2 -1.1,0.2c-0.1,0 -0.3,-0.1 -0.4,-0.3c-0.2,-0.6 0.1,-0.9 0.4,-1.3c3.5,-4.7 7.1,-9.3 10.6,-14c0.3,-0.4 0.6,-0.7 1,-1c3,-0.9 6,-1.9 9.1,-2.8c0.2,0 0.5,-0.1 0.8,0.2z" />
      <path
         id="path181"
         fill="#E868A0"
         d="m207.9,40.2c-1.1,0.9 -2.4,0.8 -3.6,1c-3.1,0.6 -6.2,1.3 -9.4,1.7c-0.5,-0.8 0,-1.4 0.3,-2c0.9,-1.5 2.2,-2.7 3.2,-4.1c1.4,-1.8 2.9,-3.5 4.2,-5.3c0.3,-0.3 0.5,-0.6 1,-0.8c0.8,-0.1 1.2,-1 1.9,-1.3l6.6,-2.7c1.3,-0.5 2.6,-1.1 3.8,-1.6c0.4,-0.2 0.9,-0.3 1.3,-0.3c0.2,0.1 0.4,0.3 0.5,0.4c-0.7,2.1 -2.1,3.7 -3.2,5.4c-1.6,2.6 -3.3,5.1 -5,7.6c-0.3,1 -1.2,1.1 -1.6,2z" />
      <path
         id="path183"
         fill="#FE68A6"
         d="m145.9,70.2l-0.2,0c-3.9,-0.2 -7.9,-0.5 -11.8,-0.7c-0.6,0 -1,0.1 -1.4,0.7c-0.7,1.1 -1.7,1.9 -2.6,2.8c-3.1,3.2 -6.1,6.4 -9.2,9.6c-0.6,0.6 -1.1,1.4 -2,1.8c-1.5,1.4 -2.5,3.3 -3.6,5l-5.7,8.7c-0.5,0.7 -1.1,0.7 -1.8,0.9c-4.1,0.9 -8.3,1.7 -12.4,2.5c-0.7,0.1 -0.9,0.7 -1,1.4c-0.3,2.9 -0.7,5.9 -1.1,8.8c0,0.2 -0.1,0.4 -0.2,0.6l-0.4,0c-2.3,0.4 -4.6,0.9 -6.8,1.3c-1.9,0.4 -3.7,0.8 -5.6,1.1c-0.4,0.1 -0.8,-0.1 -1.2,-0.2c-2.6,-0.8 -5.2,-1.7 -7.7,-2.6c-0.2,-0.1 -0.3,-0.2 -0.5,-0.3c1.2,-1.5 2.7,-2.7 4.1,-4.1c1.7,-1.7 3.5,-3.4 5.3,-5.1c5.2,-4.9 9.7,-10.7 14.6,-16.1c0.4,-0.5 0.8,-1 1.2,-1.4c1.2,-0.4 2.4,-0.4 3.5,-0.6c1.6,-0.2 3.1,-0.5 4.7,-0.7c0.7,-0.1 0.9,-0.7 1.1,-1.3c0.8,-2.6 1.6,-5.1 2.4,-7.7c0.2,-0.6 0.4,-1.2 0.6,-1.7c0.2,-0.7 0.6,-0.9 1.2,-0.6c0.4,0.2 0.7,0.4 0.9,0.8c0.4,0.8 1.1,1.4 1.6,2.1c1.1,1.5 2.3,2.8 3.4,4.3c0.7,1 1.7,1.8 2.3,3.1c0.2,-0.5 0.1,-0.9 0.1,-1.3l0,-10.1c0,-0.8 0.1,-1.5 0.9,-1.9l12.6,0c0.9,0 1.6,-0.3 2.2,-1c2.9,-3.5 5.8,-6.9 8.6,-10.4c0.9,-1.1 1.9,-1.2 3,-1.1c1.7,0.2 3.5,0.4 5.2,0.6c2.4,0.2 4.9,0.4 7.3,0.7c0.9,0.1 1.2,-0.4 1.2,-1.2c0,-1.9 0.2,-3.7 0.2,-5.6c0,-2.6 0.3,-5.2 0.2,-7.8c0,-0.4 0.1,-0.8 0.4,-1.2c0.8,1.5 1.6,2.9 2.4,4.3c1.7,3 3.4,6.1 5,9.1c0.1,0.3 0.2,0.8 0.6,0.6c0.3,-0.1 0.2,-0.5 0.3,-0.8c0.3,-3.3 0.7,-6.6 1,-9.8c0.1,-0.7 0.1,-1.3 0.2,-1.9c0.1,-0.5 0.4,-0.8 0.8,-0.7c2.1,0.4 4.2,0.1 6.2,0.2l3.6,0c0.5,0.5 0.4,1.1 0.3,1.7c-0.2,3.4 -0.5,6.9 -0.5,10.3c0,0.3 0,0.6 -0.1,0.9c-0.3,0.6 -0.9,0.5 -1.4,0.6c-2.6,0.2 -5.2,0.2 -7.9,0.3c-1.3,0.1 -2.5,0.2 -3.7,0.6c-1.4,0.5 -3,0.6 -4.5,0.7c-2.4,0.1 -4.4,1 -6.3,2.9c-2.7,2.8 -5.6,5.3 -8.5,8c0.1,0.3 -0.5,0.6 -1.1,0.9z" />
      <path
         id="path185"
         fill="#F367A4"
         d="m179.6,56.2c-0.1,-4.4 0.5,-8.7 0.5,-13.1c2.1,-2.7 3.8,-5.8 5.7,-8.6c1.7,-2.5 3.3,-5.1 5,-7.7c0.1,-0.2 0.2,-0.5 0.4,-0.7c0.3,-0.2 0.5,-0.1 0.8,0c3.9,1.6 7.8,3.2 11.8,4.8c-1.4,1.8 -2.8,3.5 -4.2,5.3c-1.3,1.6 -2.6,3.3 -3.9,4.9c-0.4,0.5 -0.6,1.2 -0.6,1.9c-0.9,3.1 -1.7,6.2 -2.6,9.2c-0.3,1 -0.4,2 -1,2.8c-0.2,0.4 -0.5,0.5 -0.8,0.4c-0.8,-0.2 -1.6,0 -2.3,0.2c-2.5,0.4 -5,0.6 -7.5,0.9c-0.5,0.1 -1.1,0.3 -1.3,-0.3z" />
      <path
         id="path187"
         fill="#FB6FA8"
         d="m118.9,69.4c-0.4,0.5 -0.6,1.1 -0.6,1.9l0,11.1c0,0.3 0.2,0.9 -0.3,1c-0.3,0.1 -0.5,-0.4 -0.6,-0.8c-0.1,-0.5 -0.4,-0.8 -0.8,-1.1c-0.5,-0.3 -0.9,-0.8 -1.1,-1.5c-0.1,-0.3 -0.3,-0.5 -0.5,-0.7c-0.6,-0.3 -1,-0.7 -1.1,-1.5c0,-0.3 -0.3,-0.5 -0.6,-0.6c-0.6,-0.3 -0.9,-0.7 -1.1,-1.4c-0.1,-0.4 -0.4,-0.6 -0.7,-0.8c-0.5,-0.3 -0.8,-0.7 -1,-1.3c-0.1,-0.2 -0.2,-0.5 -0.3,-0.6c-0.8,-1 -1.4,-0.8 -1.8,0.4c-0.8,2.6 -1.7,5.2 -2.4,7.8c-0.4,1.6 -1.1,2.6 -2.7,2.7c-2.5,0.1 -4.9,0.8 -7.3,0.9c0.5,-0.6 1.2,-0.5 1.9,-0.6c2.1,-0.4 4.2,-0.6 6.3,-0.9c0.5,-0.1 0.8,-0.4 1,-0.9c1.1,-3.4 2.1,-6.8 3.2,-10.1c0.2,-0.6 0.5,-1 1.1,-1.1c3,-0.6 6.2,-1.3 9.4,-1.9z" />
      <path
         id="path189"
         fill="#E80395"
         d="m158.8,115.3l0,-0.6c0.2,-0.4 0.4,-0.7 0.6,-1.1c2.3,-5.1 4.6,-10.3 6.8,-15.4c0.5,-1.2 0.8,-1.3 2,-1.1c3.6,0.7 7.3,1.3 10.9,2c0.2,-0.3 0.5,-0.5 0.8,-0.5c4.8,-1 9.7,-1.9 14.6,-2.8c0.4,-0.1 0.7,-0.1 1,0.2c-2.9,4.3 -5.8,8.6 -8.6,12.9c-1.1,1.6 -2.2,3.2 -3.2,4.9c-0.5,0.8 -1.1,1.3 -2,1.2c-1.8,-0.3 -3.7,-0.5 -5.6,-0.7c-2,-0.2 -3.9,-0.6 -5.9,-0.7c-0.8,0 -1.1,0.3 -0.9,1.2c0.1,0.3 0.1,0.7 0.1,1c0,2.7 0.1,5.4 0.3,8.1c0,0.6 0.2,1.3 -0.3,1.6s-0.8,-0.4 -1.2,-0.8c-2.9,-3 -5.7,-6 -8.5,-8.9c-0.2,-0.4 -0.5,-0.7 -0.9,-0.5z" />
      <path
         id="path191"
         fill="#E01291"
         d="m195.5,96c-2.7,0.5 -5.5,1 -8.2,1.5c-2.5,0.5 -5,0.9 -7.5,1.4c-0.1,-0.7 0.4,-0.9 0.8,-1.1c4.6,-3.5 9.3,-6.9 13.8,-10.4c0.2,-0.2 0.5,-0.4 0.8,-0.3c3.7,-1.2 7.5,-2.2 11.1,-3.6c2.3,-0.8 4.3,0.2 6.5,0.3c1.2,0.1 2.4,0.6 3.7,0.5c-3.5,5 -7.1,10 -10.6,15c-0.8,1.1 -0.8,1.1 -1.9,0.3c-1.7,-1.1 -3.5,-1.8 -5.3,-2.7c-0.7,-0.4 -1.5,-0.7 -2.3,-1.1c-0.2,0 -0.5,-0.2 -0.9,0.2z" />
      <path
         id="path193"
         fill="#FA379D"
         d="m169.6,87.2c-0.5,0.5 -0.5,1.3 -0.6,1.9c-0.7,2.3 -1.3,4.6 -1.9,6.9c-0.2,0.7 -0.5,0.9 -1.2,1c-3,0.2 -6.1,0.5 -9.1,0.8c-1.1,0.1 -2.3,-0.1 -3.1,1c-0.6,0.8 -1.2,1.7 -1.8,2.5c-2,2.7 -3.9,5.4 -5.9,8.1c-0.4,0.6 -0.7,1.2 -1.1,1.8c-0.5,-0.5 -1,-1 -1.5,-1.6c-2.9,-3.3 -5.8,-6.7 -8.7,-10c-0.6,-0.6 -1.2,-1.2 -1.7,-1.8c-0.2,-0.2 -0.5,-0.4 -0.3,-0.8c0.1,-0.4 0.5,-0.4 0.8,-0.4c1.3,0 2.5,-0.2 3.8,-0.2c2.1,0 4.2,-0.4 6.3,-0.3c0.9,0 1.1,-0.8 1.3,-1.5c0.5,-1.8 1,-3.6 1.5,-5.3c0.2,-0.6 0.4,-1.2 0.8,-1.7l9.9,-5.1c1.4,-0.7 2.4,-1.9 3.6,-2.9l6.9,-6.6c0.4,-0.3 0.6,-0.7 0.9,-1.2l0.2,0c1.1,-0.5 2.3,0 3.4,0.1c3.7,0.4 7.4,0.8 11.1,1.2c0.2,0 0.5,0 0.7,0.1c0.5,0.3 0.3,0.6 0.1,0.9c-1.6,2.6 -3.1,5.3 -4.7,7.9c-0.3,0.4 -0.7,0.6 -1.1,0.8c-2.1,1.2 -4.2,2.4 -6.2,3.6c-1,0.4 -1.7,0.7 -2.4,0.8z" />
      <path
         id="path195"
         fill="#F84DA0"
         d="m183.9,73.5c-2.7,-0.1 -5.3,-0.5 -8,-0.8c-1.5,-0.2 -3.1,-0.3 -4.6,-0.5c-1,-0.1 -1.9,-0.2 -2.9,-0.4c2.8,-3.9 5.6,-7.8 8.5,-11.7c0.9,-1.2 1.6,-2.5 2.6,-3.5c0.3,-0.2 0.6,-0.3 0.9,-0.3c0.4,1.5 1.4,2.6 2.3,3.6c2,2.5 4,5.1 6,7.7c0.5,0.7 1.2,1.3 1.6,2.1c0.3,0.5 0.5,1.1 0.2,1.7c-0.3,0.3 -0.6,0.5 -1,0.6c-1.5,0.4 -3,1 -4.5,1.4c-0.4,0.3 -0.7,0.5 -1.1,0.1z" />
      <path
         id="path197"
         fill="#FE5BA2"
         d="m118.9,84.3c1.2,-1.7 2.7,-2.9 4,-4.5c0.8,-1 1.8,-1.8 2.7,-2.7c2.4,-2.5 4.7,-5 7.1,-7.5c0.4,-0.4 0.8,-0.6 1.3,-0.5c1.9,0.3 3.7,0.3 5.6,0.4c2,0.1 3.9,0.3 5.9,0.4c0.1,0 0.2,0.1 0.3,0.2c-1,0.3 -2.1,0.3 -3.1,0.1c-1.2,-0.2 -2.5,-0.1 -3.7,-0.2c-1.7,-0.1 -3.4,-0.3 -5.1,-0.3c-0.6,0 -1,0.3 -1.1,1c-0.3,2.2 -0.5,4.4 -0.8,6.5c-0.4,3.2 -0.7,6.3 -1.1,9.5c-0.1,0.6 -0.3,0.9 -0.9,0.7c-2.6,-0.8 -5.3,-1.6 -7.9,-2.4c-1.2,-0.2 -2.2,-0.8 -3.2,-0.7z" />
      <path
         id="path199"
         fill="#FD5DA5"
         d="m180.5,56.5c-0.3,0.1 -0.6,0.1 -0.9,0.2c-2.5,0.5 -5,0.3 -7.6,0.5c-1.3,0.1 -2.6,0.2 -3.9,0.2c-0.4,0 -0.7,0.3 -0.9,0.6c-2.9,3.2 -5.8,6.5 -8.7,9.8c-0.7,0.8 -1.4,1.2 -2.4,1.3c-2.6,0.3 -5.1,0.6 -7.7,0.9c-0.8,0.1 -1.6,0.4 -2.5,0.4c1.6,-1.5 3.1,-2.9 4.7,-4.4c2.4,-2.2 4.8,-4.4 7.1,-6.7c0.7,-0.6 1.4,-0.9 2.2,-0.9c2.7,-0.3 5.4,-0.5 8,-1.2c1.5,-0.4 2.9,-0.1 4.3,-0.3c2.1,-0.2 4.2,-0.2 6.3,-0.2c0.3,0 0.6,-0.1 0.9,-0.2c2.2,0 4.4,-0.5 6.7,-0.7c1.3,-0.1 2.6,-0.3 3.8,-0.5c0.2,0 0.4,0 0.6,0.2c-0.2,0.5 -0.6,0.5 -1,0.6c-2.7,0.3 -5.4,0.7 -8.1,1c-0.2,-0.3 -0.6,-0.2 -0.9,-0.6z" />
      <path
         id="path201"
         fill="#E94498"
         d="m217,68.1c-2.8,0.8 -5.6,1.7 -8.4,2.5c-0.5,0.2 -1.1,0.3 -1.6,0.4c-0.4,0.3 -0.9,0.4 -1.5,0.4c-3.8,0 -7.6,0.3 -11.4,0.2c-0.9,0 -1.8,0.4 -2.8,0.1c-0.4,-0.2 -0.5,-0.4 -0.3,-0.9c0.2,-0.3 0.4,-0.6 0.7,-0.8c3.5,-4.1 7.1,-8.1 10.6,-12.2c0.3,-0.4 0.6,-0.9 1.2,-0.8c3.2,0.3 6.5,0.3 9.7,0c2.3,-0.1 4.5,0 6.8,0c-0.5,1.4 -0.9,2.8 -1.4,4.1c-0.5,1.6 -0.9,3.1 -1.4,4.7c-0.1,0.8 -0.3,1.5 -0.2,2.3z" />
      <path
         id="path203"
         fill="#EE4F9C"
         d="m203.5,57.1c-0.4,0.4 -0.8,0.8 -1.2,1.3c-3.5,4.1 -7.1,8.1 -10.6,12.2c-0.3,0.3 -0.5,0.6 -0.7,0.9c-0.2,0.2 -0.4,0.2 -0.5,0c0.2,-0.9 -0.4,-1.5 -0.8,-2.1c-2,-2.6 -3.9,-5.1 -5.9,-7.6c-1,-1.3 -2,-2.6 -3.1,-3.9c-0.4,-0.4 -0.5,-0.9 -0.2,-1.4c2.2,-0.2 4.5,-0.4 6.7,-0.8c1.2,-0.2 2.3,-0.1 3.5,-0.5c0.3,0 0.5,-0.1 0.7,-0.2c2,0.3 4.1,0.6 6.1,0.9c1.6,0.2 3.3,0.5 4.9,0.8c0.4,0 0.8,0.1 1.1,0.4z" />
      <path
         id="path205"
         fill="#F02499"
         d="m169.6,87.2c2.3,-1.3 4.5,-2.6 6.8,-3.9c0.8,-0.5 1.7,-0.9 2.5,-1.5c0.4,-0.2 0.8,-0.1 1.2,0l14.4,4.5c0.3,0.1 0.5,0.2 0.7,0.4l0.2,0.2c-4,3.2 -8.1,6.2 -12.2,9.3c-1.1,0.8 -2.3,1.5 -3.3,2.6c-0.2,0.1 -0.5,0.1 -0.7,0.2c-0.7,-1.5 -1.8,-2.7 -2.8,-3.8c-0.7,-0.9 -1.4,-1.8 -2.1,-2.7c-1.4,-1.6 -2.7,-3.4 -4.1,-5l-0.6,-0.3z" />
      <path
         id="path207"
         fill="#ED3397"
         d="m195.2,86.8c-1.4,0 -2.7,-0.7 -4,-1.1c-4,-1.2 -8.1,-2.5 -12.1,-3.8c-0.1,0 -0.2,-0.1 -0.2,-0.1c1.5,-2.6 3.1,-5.1 4.6,-7.7c0.1,-0.2 0.3,-0.4 0.5,-0.6c2.2,-0.6 4.4,-1.3 6.5,-2.1l0.5,0c3.3,-0.3 6.6,-0.1 9.9,-0.3c2,-0.1 4,-0.1 6.1,-0.2c-2.2,2.8 -4.3,5.7 -6.5,8.5c-1.7,2.2 -3.4,4.4 -5,6.6c-0.1,0.4 -0.2,0.6 -0.3,0.8z" />
    </g>
    <g
       id="logo-group">
      <g
         id="icon">
        <path
           id="path219"
           d="m117.495068,84.5174586l15.885228,0a2.375085,2.375085 0 0 0 2.3700675,-2.37l0,-2.3175l-1.875034,0l0,2.3175a0.49694625,0.49694625 0 0 1 -0.49503375,0.495l-15.885228,0a0.494565,0.494565 0 0 1 -0.49503375,-0.495l0,-15.885a0.49455375,0.49455375 0 0 1 0.49503375,-0.495l2.3175,0l0,-1.875l-2.3175,0a2.372655,2.372655 0 0 0 -2.370068,2.3700037l0,15.885a2.37266625,2.37266625 0 0 0 2.370068,2.3699963l2.5e-7,0z" />
        <path
           id="path221"
           d="m148.875,69.0214273l0,-15.8837137a2.3729025,2.3729025 0 0 0 -2.37009,-2.370375l-15.88416,0a2.3732025,2.3732025 0 0 0 -2.3704575,2.370375l0,15.8837137a2.3728875,2.3728875 0 0 0 2.3704575,2.37l15.88416,0a2.3725875,2.3725875 0 0 0 2.37009,-2.37zm-18.7497338,0l0,-15.8837137a0.49605375,0.49605375 0 0 1 0.495484,-0.4954613l15.88416,0a0.49595625,0.49595625 0 0 1 0.49509,0.4954613l0,15.8837137a0.49588875,0.49588875 0 0 1 -0.49510125,0.49509375l-15.884149,0a0.49598625,0.49598625 0 0 1 -0.495484,-0.4950937l2.5e-7,-5e-8z" />
        <path
           id="path223"
           d="m142.31298,75.5849586l0,-2.3175l-1.875034,0l0,2.3175a0.49694625,0.49694625 0 0 1 -0.49503375,0.495l-15.885228,0a0.494565,0.494565 0 0 1 -0.49503375,-0.495l0,-15.885a0.496965,0.496965 0 0 1 0.49503375,-0.495l2.3175,0l0,-1.875l-2.3175,0a2.372655,2.372655 0 0 0 -2.3700675,2.37l0,15.885a2.37025875,2.37025875 0 0 0 2.3700675,2.37l15.885228,0a2.37266625,2.37266625 0 0 0 2.370068,-2.37l-2.5e-7,0z" />
      </g>
      <g
         id="title"
         fill="#fff">
        <path
           id="path228903"
           d="m76.272586,96.2964764l-1.90675725,0l-0.330853421,-1.74133054q-0.330850945,-0.208959665 -0.96643752,-0.365679289q-0.635586575,-0.156719872 -1.34953148,-0.156719872q-1.04479832,0 -1.61943678,0.444039349q-0.565933354,0.435332758 -0.565933354,1.13186497q0,0.644292175 0.592053621,1.0622115q0.600758726,0.409212738 2.06347638,0.870665269q2.09830175,0.583345792 3.17792792,1.54107746q1.08833128,0.95773192 1.08833128,2.51622257q0,1.62814419 -1.28858336,2.56846266q-1.28858584,0.940318503 -3.39559517,0.940318503q-1.50625061,0 -2.72518322,-0.478865898q-1.21022503,-0.47886591 -2.01994342,-1.32341121l0,-2.646822l1.96770289,0l0.269907781,1.80227697q0.38309148,0.313439497 1.03609074,0.522399186q0.661706843,0.200253 1.47142523,0.200253q1.04479832,0 1.58461141,-0.426625994q0.548518191,-0.426626093 0.548518191,-1.14057149q0,-0.731358826 -0.5224004,-1.17539818q-0.513690342,-0.444039102 -1.81098376,-0.835838659q-2.25502088,-0.652998766 -3.41300786,-1.54978406q-1.1579845,-0.896785289 -1.1579845,-2.45527618q0,-1.54107746 1.30599852,-2.51622257q1.30599852,-0.983851692 3.28240899,-1.00997171q1.46271765,0 2.6642351,0.444039349t2.01994342,1.18410477l2.2e-8,2.594582096z" />
        <path
           id="path228905"
           d="m83.6916212,103.157319q0.679119529,0 1.08833128,-0.391799384q0.409214224,-0.400506148 0.409214224,-1.06221175l2.29855631,0l0.0261177911,0.05224004q0.0348278491,1.42789104 -1.07091611,2.39432948q-1.10574644,0.957731809 -2.75130349,0.957731809q-2.10700933,0 -3.24758114,-1.33211786q-1.14057181,-1.3321178 -1.14057181,-3.42171445l0,-0.261199705q0,-2.08088981 1.16669208,-3.42171445q1.17539718,-1.34082439 3.34335463,-1.34082439q1.14057181,0 2.04606369,0.339559269q0.90549188,0.339559517 1.50625061,0.95773192l0.0348253725,2.51622257l-2.06347638,0l-0.417919329,-1.47142424q-0.191546978,-0.165426463 -0.470159865,-0.269906295q-0.278612886,-0.113186423 -0.635584099,-0.113186423q-1.07962617,0 -1.52366577,0.783598618q-0.44403712,0.783598866 -0.44403712,2.01994342l0,0.261199705q0,1.26246458 0.409211748,2.03735661q0.409211748,0.766185511 1.43659738,0.766185511l-2.6e-9,-5e-9z" />
        <path
           id="path228907"
           d="m90.5969636,103.401105l1.21893262,-0.261199581l0,-5.8421635l-1.34953148,-0.261199457l0,-1.53237087l3.71774101,0l0.113186176,1.375651q0.330853422,-0.731358826 0.853251345,-1.14057156q0.5224004,-0.409212491 1.21022503,-0.409212491q0.200252083,0 0.417919329,0.0348266108q0.226372351,0.0261197723 0.374386375,0.0696532215l-0.269905305,2.31596949l-1.04479832,-0.02612002q-0.557225772,0 -0.922907043,0.217666503q-0.365678794,0.217666255 -0.557225772,0.618172155l0,4.57969939l1.21893262,0.261199581l0,1.523664l-4.98020658,0l-5e-9,-1.5236644723z" />
        <path
           id="path228909"
           d="m103.997471,105.107609q-2.03735611,0 -3.25628873,-1.30599789q-1.21893014,-1.30599793 -1.21893014,-3.31723456l0,-0.348266108q0,-2.09830348 1.14927692,-3.4565413q1.1579845,-1.35823782 3.0995696,-1.34953098q1.90675477,0 2.96026068,1.14927816q1.0535059,1.14927816 1.0535059,3.10827495l0,1.38435759l-5.62449826,0l-0.0174102097,0.05224004q0.0696532215,0.9316119 0.618171412,1.53237087q0.557225772,0.600759048 1.50625061,0.600759048q0.84454624,0 1.40177201,-0.165426414q0.557225772,-0.174133054 1.21893014,-0.539812467l0.687827111,1.56719748q-0.58334604,0.461452605 -1.51495819,0.77489209q-0.922904566,0.313439497 -2.06347638,0.313439497l-0.0000024733,-6e-9zm-0.226373,-7.8185741q-0.705239797,0 -1.11445154,0.539812343q-0.409214224,0.539812591 -0.504987714,1.41918445l0.0261202677,0.0435332015l3.11698228,0l0,-0.226372846q0,-0.809718638 -0.383093957,-1.2885846q-0.374383899,-0.487572551 -1.14056934,-0.487572551l3.3e-9,2.5e-9z" />
        <path
           id="path228911"
           d="m115.238726,105.107609q-2.03735611,0 -3.25628625,-1.30599789q-1.21893262,-1.30599793 -1.21893262,-3.31723456l0,-0.348266108q0,-2.09830348 1.14927939,-3.4565413q1.1579845,-1.35823782 3.09956712,-1.34953098q1.90675725,0 2.96026315,1.14927816q1.05350343,1.14927816 1.05350343,3.10827495l0,1.38435759l-5.62449826,0l-0.0174102097,0.05224004q0.0696532215,0.9316119 0.618173889,1.53237087q0.557225772,0.600759048 1.50625061,0.600759048q0.844543763,0 1.40176954,-0.165426414q0.557225772,-0.174133054 1.21893262,-0.539812467l0.687824634,1.56719748q-0.58334604,0.461452605 -1.51495819,0.77489209q-0.922904566,0.313439497 -2.06347638,0.313439497l-0.0000024733,-6e-9zm-0.226373,-7.8185741q-0.705239797,0 -1.11445154,0.539812343q-0.409211748,0.539812591 -0.504985237,1.41918445l0.0261202677,0.0435332015l3.11697981,0l0,-0.226372846q0,-0.809718638 -0.38309148,-1.2885846q-0.374386375,-0.487572551 -1.14057181,-0.487572551l-1.07e-8,2.5e-9z" />
        <path
           id="path228913"
           d="m121.83063,103.401105l1.21893262,-0.261199581l0,-5.8421635l-1.34953148,-0.261199457l0,-1.53237087l3.71774101,0l0.113186176,1.34953098q0.470157388,-0.722651988 1.1579845,-1.12315814q0.687824634,-0.4005059 1.54107598,-0.4005059q1.42789228,0 2.22890309,0.896785042q0.801013286,0.896785289 0.801013286,2.81224888l0,4.10083343l1.21893014,0.261199581l0,1.523664l-4.85831035,0l0,-1.52366421l1.08833128,-0.261199581l0,-4.0921264q0,-0.949025082 -0.383093957,-1.34082439q-0.38309148,-0.400506148 -1.1579845,-0.400506148q-0.504985237,0 -0.90549188,0.208959665q-0.400506643,0.200253074 -0.670411948,0.574639202l0,5.04985851l1.02738564,0.261199581l0,1.523664l-4.7886596,0l-7e-9,-1.523664694z" />
        <path
           id="path228915"
           d="m142.710149,98.743046l-1.706502,0l-0.269905305,-1.17539818q-0.2612002,-0.208959665 -0.661706843,-0.348266108q-0.391799062,-0.139306443 -0.870664031,-0.139306443q-0.670414424,0 -1.06221349,0.304732906q-0.391799062,0.296026068 -0.391799062,0.748772008q0,0.42662592 0.374386375,0.713945645q0.374386375,0.278612886 1.4975455,0.496279142q1.75003564,0.348266108 2.59458188,1.02738489q0.844543763,0.670412195 0.844543763,1.85451696q0,1.27117142 -1.09703638,2.0808901q-1.08833128,0.80101206 -2.87319725,0.80101206q-1.08833128,0 -2.00252826,-0.313439497q-0.905492,-0.322146 -1.610732,-0.914198l-0.0261202677,-2.11571667l1.77615839,0l0.348266108,1.22763809q0.226372351,0.191546359 0.618171412,0.287319551q0.391799062,0.0870665269 0.818425972,0.0870665269q0.774890542,0 1.17539718,-0.278612886q0.409214224,-0.278612911 0.409214224,-0.75747892q0,-0.417919329 -0.409214224,-0.722651988q-0.409211748,-0.304732906 -1.50625061,-0.539812591q-1.66296974,-0.339559269 -2.51622356,-1.00126487q-0.844543763,-0.670412443 -0.844543763,-1.8196906q0,-1.18410477 0.975145102,-2.03735661q0.975145102,-0.861958678 2.77742128,-0.861958678q1.09703886,0 2.07218396,0.296026315q0.983852683,0.296026068 1.54107846,0.757478598l0.0261174397,2.3420892491z" />
        <path
           id="path228917"
           d="m154.717592,93.7802538l-0.96643752,0.174133054l2.24631578,7.60090774l0.156719129,0.696532216l0.0522405353,0l0.148011548,-0.679118786l2.25502336,-7.61832117l-0.95773,-0.1741332l0,-1.53237087l4.63193799,0l0,1.5323709l-1.06221101,0.139306443l-3.735154,11.0052088l-2.611997,0l-3.743861,-11.0052087l-1.044798,-0.1393065l0,-1.53237087l4.63194,0l1.877e-7,1.532370943z" />
        <path
           id="path228919"
           d="m164.774742,103.401105l1.2276402,-0.261199581l0,-5.8421635l-1.35823906,-0.261199457l0,-1.53237087l3.90058041,0l0,7.6357343l1.21893262,0.261199581l0,1.523664l-4.98891416,0l-1e-8,-1.523664473zm3.76998154,-10.151957l-2.54234135,0l0,-1.906757l2.54234135,0l0,1.906757z" />
        <path
           id="path228921"
           d="m176.84313,105.107609q-2.03735611,0 -3.25628625,-1.30599789q-1.21893262,-1.30599793 -1.21893262,-3.31723456l0,-0.348266108q0,-2.09830348 1.14927939,-3.4565413q1.1579845,-1.35823782 3.09956712,-1.34953098q1.90675725,0 2.96026315,1.14927816q1.05350343,1.14927816 1.05350343,3.10827495l0,1.38435759l-5.62449826,0l-0.0174102096,0.05224004q0.0696532215,0.9316119 0.618173889,1.53237087q0.557225772,0.600759048 1.50625061,0.600759048q0.844543763,0 1.40176954,-0.165426414q0.557225772,-0.174133054 1.21893262,-0.539812467l0.687824634,1.56719748q-0.58334604,0.461452605 -1.51495819,0.77489209q-0.922904566,0.313439497 -2.06347638,0.313439497l-0.0000024734,-6e-9zm-0.226372,-7.8185741q-0.705239797,0 -1.11445154,0.539812343q-0.409211748,0.539812591 -0.504985237,1.41918445l0.0261202676,0.0435332015l3.11697981,0l0,-0.226372846q0,-0.809718638 -0.38309148,-1.2885846q-0.374386375,-0.487572551 -1.14057181,-0.487572551l-1.06e-8,2.5e-9z" />
        <path
           id="path228923"
           d="m197,97.0365421l-0.949024834,0.121893014l-1.967705,7.7663339l-2.124422,0l-1.75003812,-5.60708433l-0.0522380588,0l-1.750039,5.6070843l-2.11571691,0l-1.97641047,-7.7663342l-0.949024834,-0.121893014l0,-1.53237087l4.2662592,0l0,1.53237087l-1.00126537,0.191546235l0.888079194,4.30979314l0.0522405353,0l1.75874322,-6.03371025l1.70650517,0l1.77615591,6.05112344l0.0522405353,0l0.879371612,-4.31849974l-1.00997047,-0.200252826l0,-1.53237087l4.2662592,0l4.902e-7,1.532371201z" />
      </g>
    </g>
  </g>
</svg>
